<svg width="462" height="417" viewBox="0 0 462 417" fill="none" xmlns="http://www.w3.org/2000/svg">
<path d="M224.378 106.956C233.401 91.3276 255.959 91.3276 264.982 106.956L412.169 361.892C421.192 377.52 409.913 397.055 391.867 397.055H97.4926C79.4467 397.055 68.1679 377.52 77.1909 361.892L224.378 106.956Z" fill="#9A8DEC"/>
<g clip-path="url(#clip0_194_1685)">
<path d="M338.785 264.064C340.343 266.149 341.883 268.163 343.364 270.22C343.972 271.063 344.895 271.961 344.077 273.095C343.061 274.505 342.602 276.776 340.064 276.157C339.479 276.014 339.562 276.361 339.361 276.63C337.97 278.483 336.191 279.456 334.205 276.627C333.012 279.655 331.928 282.654 330.496 285.52C327.702 291.112 324.814 296.662 322.385 302.431C319.407 309.499 317.028 316.764 315.249 324.222C314.884 325.753 314.543 327.289 314.137 328.811C314.029 329.22 313.997 329.567 314.385 329.725C314.754 329.873 314.847 329.446 315.023 329.223C315.587 328.51 316.002 327.627 317.146 327.649C317.709 327.661 317.657 327.147 317.731 326.738C318.242 323.921 318.769 321.111 319.305 318.301C319.361 318.007 319.466 317.7 319.63 317.455C319.823 317.17 320.064 316.798 320.498 317.021C320.845 317.201 320.696 317.523 320.647 317.833C320.173 320.86 319.733 323.891 319.255 326.918C319.067 328.117 319.535 329.245 319.565 330.416C319.64 333.145 319.302 335.89 318.475 338.425C317.025 342.865 316.486 347.262 317.04 351.916C317.487 355.671 316.786 359.426 316.275 363.175C315.59 368.232 314.741 373.251 313.716 378.246C313.595 378.835 313.641 379.494 313.762 380.089C314.199 382.277 312.613 383.934 312.297 385.914C311.602 390.237 310.843 394.534 310.524 398.927C309.929 407.123 309.474 415.315 309.213 423.526C309.068 428.105 309.037 432.685 309.034 437.264C309.025 449.407 309.136 461.552 308.984 473.692C308.935 477.692 309.062 481.757 308.086 485.692C307.643 487.48 306.713 489.094 305.037 490.045C304.34 490.439 303.364 490.144 302.717 490.247C300.907 490.538 301.505 489.069 301.434 488.645C300.454 482.894 300.334 477.137 300.851 471.294C301.198 467.377 301.582 463.442 301.737 459.507C301.904 455.312 302.028 451.102 301.874 446.906C301.734 443.074 301.217 439.256 300.9 435.426C300.206 427.045 301.266 418.853 302.775 410.652C303.68 405.735 304.064 400.743 304.467 395.749C304.783 391.801 305.632 387.888 306.344 383.977C306.772 381.617 306.509 379.259 306.527 376.904C306.558 372.132 306.28 367.361 306.468 362.587C306.478 362.314 306.67 361.821 306.249 361.821C304.833 361.821 305.13 360.625 305.065 359.959C304.439 353.666 304.522 347.395 305.595 341.133C306.974 333.108 308.923 325.223 311.231 317.424C313.465 309.879 316.386 302.614 319.934 295.568C322.23 291.004 324.78 286.57 326.933 281.944C327.761 280.169 328.91 278.452 328.975 276.29C324.885 277.219 320.833 276.788 316.78 276.002C316.133 275.875 315.417 275.859 314.778 275.999C314.044 276.157 313.48 276.572 314.004 277.507C314.469 278.344 314.586 279.209 313.561 279.729C312.898 280.067 313.607 280.702 313.059 281.151C311.878 282.115 310.726 282.778 309.257 281.91C308.473 281.449 307.903 281.588 307.206 282.13C305.53 283.441 303.64 284.479 301.985 286.109C303.007 286.152 303.355 286.211 302.682 287.267C301.92 288.47 300.783 289.108 299.807 289.975C296.706 292.739 293.545 295.444 290.403 298.164C289.951 298.555 289.428 299.206 288.832 298.639C288.232 298.065 288.678 297.365 289.127 296.866C290.624 295.206 292.16 293.582 293.638 291.887C291.686 293.052 290.028 294.614 288.234 295.989C287.398 296.631 286.7 297.511 285.344 297.024C284.618 296.764 283.971 297.573 283.308 297.938C282.685 298.282 282.065 298.638 281.486 299.045C280.569 299.689 279.649 299.571 278.809 299.001C278.391 298.719 278.71 296.082 279.153 295.689C279.804 295.109 280.528 294.605 281.158 294C281.883 293.303 283.187 293.09 283.085 291.655C283.06 291.323 283.614 291.236 283.915 291.051C289.043 287.868 294.168 284.677 299.314 281.474C297.963 280.352 297.297 278.208 298.047 276.553C298.499 275.549 298.193 275.109 297.524 274.505C296.894 273.938 296.222 273.396 296.303 272.321C296.365 271.493 295.584 271.506 295.048 271.695C290.493 273.297 285.765 273.098 281.093 272.813C274.843 272.432 268.588 272.275 262.338 271.915C258.149 271.673 254.186 270.415 250.474 268.575C245.201 265.957 239.599 264.261 234.075 262.347C229.194 260.655 224.618 258.428 220.692 255.032C218.266 252.931 215.509 251.304 212.928 249.433C209.987 247.301 209.405 244.599 211.574 241.681C214.015 238.39 216.531 235.174 220.017 232.881C220.863 232.323 221.061 231.276 221.675 230.523C222.48 229.538 223.094 228.398 224.2 227.676C225.129 227.066 225.002 226.48 224.116 225.922C222.833 225.113 222.059 224.014 222 222.427C221.96 221.371 223 221.107 223.348 221.253C224.51 221.746 224.296 220.847 224.132 220.49C223.589 219.319 224.571 217.414 222.455 216.949C222.294 216.915 222.331 216.097 222.229 215.651C220.983 210.089 220.2 204.46 219.493 198.808C219.044 195.192 218.235 191.62 217.56 188.032C217.365 186.991 217.067 185.968 216.838 184.93C216.785 184.692 216.726 184.354 216.847 184.199C217.16 183.802 217.919 183.716 217.541 182.907C216.922 181.581 216.696 180.066 215.627 178.957C215.332 178.653 214.867 178.591 214.626 178.755C212.55 180.168 210.489 178.988 208.652 178.433C203.344 176.828 197.907 176.248 192.45 175.586C187.066 174.928 181.699 174.234 176.261 174.38C175.79 174.393 175.524 174.185 175.229 173.856C170.334 168.413 164.627 163.991 158.179 160.54C155.239 158.966 152.686 156.853 150.089 154.823C146.693 152.171 142.777 150.343 139.359 147.734C137.531 146.337 135.533 145.159 133.714 143.747C130.795 141.475 127.66 139.879 123.873 139.715C121.571 139.613 120.534 138.086 119.725 136.04C118.327 132.506 118.641 128.865 118.578 125.23C118.56 124.14 118.709 123.319 117.243 122.572C116.003 121.94 114.78 121.11 113.224 120.354C113.701 122.529 114.423 124.397 115.35 126.079C116.27 127.743 115.74 129.407 115.954 131.052C116.013 131.495 115.774 131.988 116.003 132.509C116.252 133.072 116.14 133.68 115.557 133.992C114.888 134.352 114.135 134.154 113.76 133.596C113.373 133.023 113.271 132.447 112.326 132.818C111.861 133.001 111.26 132.316 111.164 131.966C110.681 130.197 108.976 130.017 107.768 129.286C105.203 127.734 103.006 125.832 100.948 123.653C99.7246 122.358 98.0144 121.519 96.4993 120.508C94.6497 119.278 93.76 116.772 94.5194 114.984C94.9002 114.085 95.4362 113.841 96.2914 114.312C98.5504 115.56 100.725 116.979 102.29 119.039C103.412 120.518 104.88 121.469 106.389 122.733C106.178 119.207 105.844 115.96 103.691 113.165C102.646 111.811 103.043 111.102 104.756 111.071C105.425 111.058 105.203 110.296 105.98 110.188C108.1 109.893 108.76 111.535 109.866 112.589C110.367 113.066 110.613 113.807 111.086 114.324C111.607 114.891 111.843 115.722 113.131 115.427C113.931 115.244 115.077 116.131 115.808 116.976C116.342 117.596 116.912 118.184 117.711 118.479C118.324 118.705 119 118.826 119.462 118.349C121.255 116.493 123.13 117.103 125.122 117.946C127.477 118.941 129.878 119.852 132.496 119.886C133.655 119.901 134.656 119.709 135.796 119.123C137.984 117.999 140.366 118.559 142.576 119.585C145.528 120.961 148.394 122.525 151.034 124.409C152.144 125.202 153.184 124.487 154.216 124.939C158.721 126.922 163.084 129.395 167.886 130.494C171.741 131.378 175.202 133.159 178.914 134.318C179.493 134.498 180.057 134.733 180.627 134.941C180.909 133.85 182.272 134.138 182.746 133.271C183.053 132.71 183.462 132.648 184.144 132.809C186.399 133.351 188.494 134.306 190.595 135.223C192.082 135.873 193.318 136.047 194.985 135.461C199.18 133.987 203.53 132.967 207.865 131.936C208.878 131.694 209.854 131.294 210.892 130.95C210.279 130.262 209.708 129.667 209.194 129.032C208.977 128.765 208.661 128.335 208.745 128.106C209.349 126.417 208.113 125.738 207.106 124.902C204.847 123.024 204.175 119.594 205.176 116.27C205.891 113.89 207.689 112.192 208.751 110.051C210.158 107.222 212.404 105.485 215.379 104.511C216.169 104.254 216.432 102.897 217.675 103.25C217.817 103.29 217.665 102.844 217.653 102.625C217.569 101.025 215.912 100.217 215.642 98.8972C215.27 97.0753 215.004 95.1667 215.301 93.2426C215.602 91.284 215.908 89.3324 216.414 87.4142C216.531 86.9653 216.658 86.4787 216.228 85.9863C215.168 84.7717 215.5 83.4826 216.097 82.1345C216.798 80.5577 217.734 79.1293 219.1 78.1594C221.12 76.7251 222.09 74.5314 223.503 72.6659C224.135 71.8294 223.267 70.903 223.434 69.9054C223.76 67.9531 224.033 65.9951 224.454 64.0556C224.587 63.4451 224.671 62.7293 224.191 61.9891C223.596 62.4879 223.543 63.225 223.199 63.7764C222.787 64.4337 222.48 65.3846 221.356 64.8703C220.949 64.6842 220.739 64.973 220.637 65.2266C219.943 66.9741 218.173 67.6341 216.977 68.8673C216.516 69.3443 215.939 69.6884 215.096 69.4374C214.576 69.2826 213.882 69.5209 213.318 69.7288C211.187 70.5159 209.758 69.5677 209.622 67.2746C209.526 65.6483 210.077 64.1641 210.579 62.6799C211.843 58.9307 212.695 55.0364 214.675 51.5412C215.403 50.2553 216.243 49.1026 217.522 48.4086C220.004 45.2048 223.05 43.3675 225.566 40.5727C228.773 37.0157 232.249 33.7469 236.547 31.42C240.091 29.499 243.401 27.1721 246.747 24.9134C250.611 22.3014 254.682 20.0644 259.354 19.2123C259.837 19.1256 260.02 18.8343 260.178 18.4253C260.752 16.9474 261.861 14.3231 263.382 13.911C265.306 13.3905 266.784 13.5423 268.823 13.2976C268.95 13.282 269.086 13.1426 269.173 13.0279C271.559 9.94817 275.296 9.00014 278.515 7.31147C280.86 6.08143 283.695 5.9605 286.218 4.99072C287.584 4.464 289.053 4.20377 290.437 3.71732C292.826 2.88075 294.766 3.63978 296.668 5.10222C299.333 7.15337 301.737 9.52677 304.718 11.1937C306.989 12.4641 307.587 15.0296 308.755 17.1644C310.788 20.8793 311.032 25.1613 312.619 28.9661C315.404 35.637 318.407 42.2335 322.261 48.3869C324.38 51.7704 325.657 55.532 327.125 59.2099C328.253 62.0321 329.393 64.8517 330.652 67.6186C331.9 70.3606 332.386 73.2828 332.526 76.2077C332.888 83.8575 333.809 91.4207 335.271 98.9371C335.55 100.369 335.714 101.865 335.693 103.371C335.618 108.707 336.387 113.934 337.369 119.185C338.264 123.969 338.94 128.818 339.51 133.68C340.29 140.36 341.481 147.03 344.154 153.336C347.293 160.735 350.366 168.156 354.236 175.214C355.479 177.482 356.802 179.707 358.007 181.993C360.229 186.216 361.892 190.712 364.3 194.854C368.213 201.587 372.015 208.382 375.916 215.121C376.945 216.9 377.446 218.945 378.745 220.577C379.067 220.983 378.847 221.411 378.822 221.863C378.488 227.785 375.538 232.568 372.244 237.203C368.839 241.997 366.41 247.345 363.519 252.432C362.633 253.987 361.509 255.382 359.783 256.15C358.887 256.55 358.444 257.451 358.01 258.217C357.316 259.444 356.167 260.141 355.111 260.832C354.054 261.526 352.765 260.987 351.637 260.469C351.488 260.401 351.528 259.927 351.135 260.339C348.975 262.607 346.007 262.725 343.191 263.273C341.766 263.552 340.256 263.345 338.782 264.032L338.785 264.064ZM306.314 268.426C311.079 269.523 315.568 270.604 320.083 271.58C322.791 272.166 325.539 272.379 328.316 271.97C330.084 271.71 330.627 270.901 329.741 269.396C329.291 268.633 329.149 267.896 329.146 267.063C329.139 265.231 328.966 265.101 327.073 265.148C326.001 265.172 324.442 265.554 323.944 265.009C322.707 263.655 321.728 263.974 320.464 264.674C320.042 264.907 319.255 264.702 319.014 265.002C317.316 267.103 314.853 266.576 312.665 267.01C310.636 267.413 308.535 267.509 306.31 268.426H306.314Z" fill="#FFF1E5"/>
<path d="M308.6 140.934C314.247 138.415 316.783 131.794 314.263 126.147C311.744 120.499 305.123 117.964 299.476 120.483C293.829 123.003 291.293 129.623 293.813 135.271C296.332 140.918 302.953 143.454 308.6 140.934Z" fill="#FFF1E5"/>
<path d="M306.915 136.826C305.313 137.541 303.494 137.59 301.856 136.963C300.218 136.335 298.897 135.083 298.182 133.482C297.468 131.88 297.419 130.061 298.046 128.423C298.673 126.785 299.925 125.464 301.527 124.749" fill="#9A8DEC"/>
<path d="M306.915 136.826C305.313 137.541 303.494 137.59 301.856 136.963C300.218 136.335 298.897 135.083 298.182 133.482C297.468 131.88 297.419 130.061 298.046 128.423C298.673 126.785 299.925 125.464 301.527 124.749" fill="#9A8DEC"/>
<path d="M306.997 136.818C305.396 137.533 303.576 137.582 301.938 136.954C300.301 136.327 298.979 135.075 298.265 133.474C297.55 131.872 297.501 130.053 298.128 128.415C298.756 126.777 300.008 125.456 301.609 124.741" fill="#9A8DEC"/>
<path d="M307.371 129.414C307.215 129.064 307.205 128.667 307.341 128.31C307.478 127.952 307.752 127.664 308.101 127.508L309.545 126.864C309 126.123 308.306 125.505 307.508 125.049L306.892 126.656C306.753 127.011 306.48 127.296 306.131 127.45C305.783 127.604 305.387 127.614 305.032 127.477C304.676 127.341 304.389 127.07 304.232 126.723C304.075 126.375 304.062 125.98 304.196 125.623L304.743 124.194C303.642 124.106 302.536 124.297 301.527 124.749L301.172 124.907C301.166 124.91 301.162 124.914 301.16 124.919C301.158 124.925 301.158 124.931 301.161 124.936L302.208 127.283L302.583 127.115L303.406 128.96L303.019 129.968L304.028 130.354L306.917 136.828C307.913 136.385 308.784 135.702 309.451 134.839L308.072 134.311C307.721 134.169 307.44 133.895 307.289 133.548C307.138 133.201 307.129 132.809 307.265 132.455C307.4 132.102 307.669 131.816 308.013 131.659C308.357 131.501 308.749 131.486 309.105 131.614L310.677 132.217C310.876 131.325 310.887 130.402 310.709 129.506L309.276 130.146C308.926 130.301 308.529 130.311 308.172 130.174C307.815 130.037 307.527 129.763 307.371 129.414Z" fill="#1B1B1B"/>
<path d="M307.453 129.406C307.297 129.056 307.287 128.659 307.423 128.301C307.56 127.944 307.834 127.655 308.183 127.499L309.627 126.855C309.082 126.115 308.388 125.497 307.59 125.041L306.974 126.648C306.835 127.003 306.562 127.288 306.213 127.442C305.865 127.596 305.469 127.605 305.114 127.469C304.758 127.333 304.471 127.062 304.314 126.714C304.157 126.367 304.144 125.972 304.278 125.615L304.825 124.186C303.724 124.098 302.618 124.289 301.609 124.74L301.254 124.899C301.248 124.902 301.244 124.906 301.242 124.911C301.24 124.917 301.24 124.923 301.243 124.928L302.29 127.275L302.665 127.107L303.488 128.952L303.101 129.96L304.11 130.345L306.999 136.82C307.995 136.377 308.866 135.693 309.533 134.831L308.154 134.302C307.803 134.161 307.522 133.887 307.371 133.54C307.22 133.193 307.211 132.8 307.347 132.447C307.482 132.094 307.751 131.808 308.095 131.65C308.439 131.493 308.831 131.477 309.187 131.606L310.759 132.208C310.958 131.317 310.969 130.394 310.791 129.498L309.358 130.137C309.008 130.293 308.611 130.303 308.254 130.166C307.897 130.028 307.609 129.755 307.453 129.406Z" fill="#1B1B1B"/>
<path d="M306.846 136.67L304.726 131.92L303.404 135.357L306.846 136.67Z" fill="#1B1B1B"/>
<path d="M306.612 136.142L307.562 136.506C307.115 136.766 306.64 136.974 306.145 137.124C306.055 137.151 305.958 137.147 305.87 137.112L302.7 135.899C302.666 135.886 302.635 135.866 302.609 135.841C302.582 135.816 302.561 135.786 302.546 135.752C302.531 135.719 302.523 135.683 302.522 135.647C302.521 135.61 302.527 135.574 302.54 135.54L303.973 131.797C303.999 131.728 303.997 131.651 303.967 131.584C303.937 131.516 303.882 131.463 303.813 131.437L301.859 130.689C301.79 130.663 301.734 130.61 301.704 130.543C301.674 130.475 301.672 130.399 301.698 130.33L302.437 128.4C302.464 128.331 302.462 128.254 302.432 128.187C302.402 128.12 302.346 128.067 302.277 128.04L301.239 127.643C301.17 127.617 301.115 127.564 301.085 127.497L300.295 125.728C300.27 125.669 300.265 125.604 300.282 125.542C300.299 125.481 300.337 125.427 300.389 125.39C300.65 125.205 300.923 125.04 301.207 124.895L301.959 126.58C301.974 126.614 301.995 126.644 302.022 126.669C302.049 126.694 302.08 126.714 302.114 126.727L302.475 126.865L303.792 127.37C303.861 127.396 303.917 127.449 303.947 127.516C303.977 127.584 303.979 127.66 303.953 127.729L303.214 129.659C303.201 129.693 303.194 129.73 303.195 129.766C303.196 129.803 303.205 129.839 303.219 129.872C303.234 129.905 303.256 129.935 303.282 129.961C303.309 129.986 303.34 130.005 303.374 130.018L303.984 130.252L305.328 130.766C305.397 130.793 305.452 130.846 305.483 130.913C305.513 130.98 305.515 131.057 305.488 131.126L304.973 132.47L304.055 134.869C304.042 134.903 304.036 134.939 304.037 134.976C304.038 135.012 304.046 135.048 304.061 135.082C304.076 135.115 304.097 135.145 304.124 135.17C304.15 135.195 304.182 135.215 304.216 135.228L306.612 136.142Z" fill="#FFF1E5"/>
<path d="M306.694 136.134L307.644 136.497C307.197 136.758 306.722 136.965 306.227 137.116C306.137 137.142 306.04 137.138 305.952 137.104L302.782 135.891C302.748 135.878 302.717 135.858 302.691 135.833C302.664 135.808 302.643 135.778 302.628 135.744C302.613 135.711 302.605 135.675 302.604 135.638C302.603 135.602 302.609 135.566 302.622 135.531L304.055 131.789C304.081 131.72 304.079 131.643 304.049 131.576C304.019 131.508 303.964 131.455 303.895 131.429L301.941 130.681C301.872 130.654 301.816 130.602 301.786 130.534C301.756 130.467 301.754 130.391 301.78 130.322L302.52 128.392C302.546 128.323 302.544 128.246 302.514 128.179C302.484 128.111 302.428 128.059 302.359 128.032L301.321 127.635C301.252 127.609 301.197 127.556 301.167 127.489L300.377 125.72C300.352 125.661 300.347 125.596 300.364 125.534C300.381 125.473 300.419 125.419 300.471 125.382C300.732 125.197 301.005 125.032 301.289 124.887L302.041 126.572C302.056 126.606 302.077 126.636 302.104 126.661C302.131 126.686 302.162 126.706 302.196 126.719L302.557 126.857L303.874 127.361C303.943 127.388 303.999 127.441 304.029 127.508C304.059 127.576 304.061 127.652 304.035 127.721L303.296 129.651C303.283 129.685 303.276 129.721 303.277 129.758C303.278 129.795 303.287 129.83 303.301 129.864C303.316 129.897 303.338 129.927 303.364 129.952C303.391 129.978 303.422 129.997 303.456 130.01L304.066 130.244L305.41 130.758C305.479 130.785 305.534 130.837 305.565 130.905C305.595 130.972 305.597 131.049 305.57 131.118L305.055 132.462L304.137 134.861C304.124 134.895 304.118 134.931 304.119 134.968C304.12 135.004 304.128 135.04 304.143 135.074C304.158 135.107 304.179 135.137 304.206 135.162C304.232 135.187 304.264 135.207 304.298 135.22L306.694 136.134Z" fill="#FFF1E5"/>
<path d="M311.767 127.427C312.438 128.929 312.651 130.596 312.379 132.219C312.107 133.841 311.362 135.347 310.237 136.548C309.112 137.749 307.658 138.591 306.057 138.968C304.455 139.346 302.778 139.242 301.235 138.67C299.166 137.877 297.496 136.295 296.593 134.271C295.69 132.247 295.629 129.947 296.421 127.878C297.214 125.808 298.797 124.139 300.821 123.236C302.845 122.333 305.144 122.271 307.214 123.064C309.244 123.866 310.879 125.433 311.767 127.427ZM311.767 127.427C311.328 126.442 310.697 125.555 309.91 124.818C309.123 124.081 308.197 123.509 307.186 123.135C305.681 122.58 304.045 122.484 302.486 122.861C300.927 123.238 299.515 124.071 298.431 125.252C298.075 125.639 297.758 126.059 297.485 126.508C297.214 126.956 296.985 127.429 296.801 127.919C296.62 128.41 296.486 128.917 296.403 129.434C296.321 129.949 296.287 130.471 296.303 130.992C296.335 132.036 296.572 133.064 297.001 134.017C297.76 135.722 299.087 137.111 300.755 137.95C302.422 138.788 304.329 139.024 306.151 138.616C307.972 138.209 309.597 137.183 310.749 135.714C311.9 134.245 312.508 132.423 312.469 130.556C312.442 129.477 312.204 128.414 311.767 127.427Z" fill="#B7B7B7"/>
<path d="M297.105 134.912C297.732 134.633 298.014 133.897 297.734 133.27C297.454 132.643 296.719 132.361 296.091 132.641C295.464 132.921 295.182 133.656 295.462 134.283C295.742 134.911 296.477 135.192 297.105 134.912Z" fill="#515151"/>
<path d="M221.073 320.652C222.777 319.924 224.478 319.181 226.191 318.474C227.313 318.013 228.506 317.7 229.572 317.139C230.576 316.612 231.211 317.077 231.855 317.663C232.58 318.326 232.451 319.069 231.561 319.286C227.877 320.191 224.844 322.422 221.522 324.064C219.242 325.195 217.017 326.444 214.79 327.68C213.191 328.566 212.153 330.097 210.805 331.274C209.68 332.253 208.546 333.217 207.403 334.174C206.981 334.528 206.21 334.772 206.065 334.28C205.435 332.163 204.698 334.063 204.426 334.307C200.639 337.691 196.921 341.155 193.181 344.588C192.732 345 192.236 345.362 191.759 345.75C191.988 346.078 192.171 345.861 192.388 345.765C192.559 345.691 192.766 345.7 193.048 345.657C192.971 346.397 192.689 346.831 192.026 347.017C189.104 347.835 187.055 349.97 184.834 351.838C177.125 358.32 169.423 364.808 160.428 369.514C159.982 369.747 159.57 369.84 159.932 370.611C160.211 371.209 159.4 371.603 158.885 371.609C157.813 371.624 156.499 372.22 155.96 370.525C155.752 369.874 155.062 370.047 154.743 370.531C153.67 372.142 151.743 371.401 150.358 372.179C149.912 372.43 149.5 371.718 149.144 371.383C148.71 370.98 149.017 370.549 149.283 370.15C150.303 368.613 151.79 367.538 153.184 366.432C157.361 363.126 161.59 359.879 166.108 357.034C167.08 356.42 167.629 355.392 168.385 354.565C171.263 351.414 174.523 348.69 178.027 346.264C178.588 345.877 179.176 345.486 179.496 344.923C182.662 339.277 186.696 334.252 191.034 329.52C195.387 324.774 200.791 321.381 206.836 319.079C209.2 318.177 211.558 317.195 214.046 316.73C216.921 316.191 218.911 314.254 221.116 312.646C224.537 310.149 227.933 307.614 231.328 305.08C231.942 304.622 232.447 304.005 233.089 303.596C240.835 298.682 248.256 293.285 255.884 288.2C256.587 287.732 257.38 286.92 258.369 287.72C258.979 288.212 259.57 289.102 259.27 289.641C258.622 290.796 258.486 292.182 257.575 293.198C256.097 294.84 254.728 296.59 253.151 298.13C246.099 305.025 238.288 310.933 229.708 315.804C227.753 316.913 225.767 317.988 223.626 318.738C222.619 319.091 221.739 319.68 221.076 320.652H221.073Z" fill="#FFF1E5"/>
<path d="M147.028 341.26C150.427 339.392 153.804 337.48 157.231 335.665C160.091 334.15 163.047 332.901 166.241 332.16C167.837 331.792 168.93 332.647 170.275 333C169.312 333.397 168.265 333.313 167.288 333.635C161.953 335.392 157.237 338.317 152.521 341.272C147.106 344.668 141.652 348.002 136.211 351.361C135.911 351.547 135.583 351.795 135.254 351.81C134.613 351.841 133.86 352.135 133.352 351.547C132.775 350.881 133.395 350.258 133.686 349.741C134.966 347.46 137.203 346.035 138.941 343.971C137.237 343.776 137.448 343.076 138.148 341.864C139.533 339.466 141.94 338.366 143.998 336.82C147.375 334.283 150.985 332.102 154.551 329.843C156.28 328.746 158.315 329.056 160.013 328.07C160.366 327.866 161.225 328.154 161.253 328.634C161.302 329.514 161.727 330.499 160.559 331.222C157.374 333.198 154.244 335.268 151.273 337.564C149.795 338.704 148.351 339.891 146.892 341.056L147.028 341.257V341.26Z" fill="#FFF1E5"/>
<path d="M51.1203 431.101C55.9937 432.542 56.1548 436.502 56.6196 440.291C56.6568 440.585 56.5207 440.772 56.3191 440.951C55.0705 442.07 55.1168 443.644 56.1798 444.895C57.0131 445.877 57.8901 445.726 58.9372 445.561C62.2401 445.054 64.3812 442.832 66.5594 440.598C69.5369 437.54 72.5921 434.556 75.9041 431.851C76.2513 431.566 76.6571 431.352 77.1155 431.052C76.6449 430.553 76.2295 430.116 75.7429 429.602C72.5671 432.697 68.9668 435.194 65.3884 437.713C64.7624 438.154 64.0993 439.086 63.1633 438.098C62.1689 437.047 61.9243 435.523 62.6523 434.59C65.0629 431.507 68.0186 428.979 70.9961 426.482C71.7896 425.819 72.3006 425.456 71.4577 424.232C68.2606 419.572 65.2857 414.769 64.2604 409.053C63.8701 406.866 64.437 404.864 65.6452 403.144C69.0381 398.317 73.0446 394.001 77.2862 389.911C81.28 386.06 85.2584 382.184 89.3851 378.475C93.0417 375.191 96.927 372.17 100.648 368.954C104.49 365.632 108.307 362.277 112.044 358.837C117.218 354.072 122.399 349.307 127.406 344.365C132.022 339.807 136.391 335.001 140.899 330.335C145.16 325.926 149.376 321.468 153.764 317.186C159.948 311.153 166.204 305.195 172.556 299.339C177.612 294.679 182.808 290.167 188.032 285.693C193.101 281.355 198.09 276.931 203.087 272.516C206.712 269.315 210.127 265.891 213.777 262.725C215.211 261.482 215.165 259.375 216.655 258.145C217.117 257.765 216.395 257.238 216.073 256.888C213.981 254.598 211.63 252.636 208.9 251.131C206.834 249.991 206.61 248.218 208.259 246.61C208.512 246.362 208.847 246.118 208.956 245.804C210.3 241.879 213.163 239.013 215.806 236.008C218.111 233.387 220.513 230.852 223.004 228.135C221.743 227.849 220.819 227.258 220.497 226.006C220.218 224.925 219.726 223.887 219.865 222.725C220.029 221.349 221.201 220.856 222.161 220.234C222.809 219.812 222.976 219.536 222.756 218.694C221.331 213.194 220.389 207.595 219.518 201.981C218.493 195.369 217.272 188.785 216.042 182.204C215.921 181.55 215.939 180.881 216.342 180.742C216.859 180.559 217.371 180.986 217.743 181.6C219.174 183.973 219.589 186.659 220.15 189.277C221.796 196.958 223.029 204.717 224.222 212.481C224.578 214.799 224.624 217.299 225.588 219.348C226.288 220.835 225.882 222.09 226.028 223.431C226.155 224.624 226.037 224.636 224.848 224.156C224.776 225.244 225.136 225.547 226.307 225.891C228.953 226.666 231.651 227.035 234.335 227.5C240.293 228.537 246.263 229.479 252.231 230.468C256.076 231.106 259.921 231.753 263.807 232.404C263.583 233.175 263.085 232.934 262.747 232.922C258.555 232.776 254.397 232.274 250.239 231.75C247.097 231.353 243.937 231.1 240.785 230.762C236.284 230.276 231.766 229.872 227.32 228.949C226.517 228.782 225.916 228.937 225.253 229.755C222.929 232.627 220.37 235.311 217.95 238.108C215.682 240.733 213.327 243.289 211.236 246.142C213.368 246.412 215.016 247.4 216.358 248.844C217.012 249.547 217.272 249.216 217.578 248.664C218.589 246.849 219.301 246.52 221.241 246.976C224.513 247.744 227.614 248.996 230.685 250.313C242.589 255.425 254.639 260.153 267.094 263.76C270.214 264.661 273.406 265.312 276.566 266.065C277.474 266.282 278.428 266.555 279.017 267.227C279.844 268.175 280.535 268.085 281.604 267.652C288.634 264.817 295.996 263.103 303.361 261.446C311.519 259.605 319.708 257.892 327.906 256.234C333.623 255.078 339.38 254.121 345.112 253.04C345.809 252.906 346.593 252.884 347.005 252.005C347.271 251.435 348.098 251.564 348.65 251.314C348.83 251.233 349.05 251.208 349.251 251.211C353.818 251.301 354.075 250.35 355.234 255.398C355.429 256.243 355.724 257.061 356.027 258.071C357.093 256.845 357.71 255.524 358.249 254.149C360.266 248.977 363.659 244.658 366.94 240.287C369.887 236.358 372.855 232.435 376.207 228.835C376.963 228.023 377.791 227.109 379.197 227.614C380.731 228.165 380.994 228.633 380.273 230.17C378.903 233.082 377.066 235.72 375.287 238.384C371.836 243.561 368.018 248.513 365.078 254.003C363.547 256.86 361.614 259.54 360.706 262.71C360.297 264.135 359.141 264.364 357.958 264.497C357.143 264.587 356.297 264.593 355.485 264.488C354.667 264.386 354.37 264.637 354.255 265.445C353.632 269.793 353.571 274.192 353 278.536C352.436 282.824 351.959 287.122 351.24 291.392C350.736 294.406 350.49 297.47 350.258 300.522C349.716 307.587 349.375 314.66 349.248 321.75C349.177 325.694 348.914 329.65 348.672 333.598C348.368 338.493 347.761 343.37 347.516 348.266C347.37 351.135 347.011 353.976 346.794 356.833C346.509 360.604 346.171 364.371 345.657 368.126C345.186 371.575 345.065 375.07 344.65 378.528C344.182 382.428 344.099 386.364 343.485 390.252C343.265 391.656 343.237 393.109 343.172 394.528C342.875 400.824 342.181 407.089 341.821 413.382C341.341 421.775 340.886 430.165 340.604 438.572C340.39 444.986 340.247 451.402 339.95 457.81C339.559 466.197 339.894 474.578 339.686 482.959C339.569 487.768 339.875 492.577 339.55 497.395C339.454 498.82 339.534 500.335 339.337 501.739C339.12 503.276 338.692 504.704 338.986 506.333C339.12 507.074 337.954 507.746 337.158 508.239C332.331 511.226 327.169 513.525 321.932 515.675C316.805 517.782 311.559 519.499 306.094 520.453C303.983 520.822 301.842 521.051 299.708 521.215C298.174 521.33 296.634 521.277 295.1 521.5C292.417 521.891 289.817 521.119 287.187 520.794C286.075 520.658 284.975 520.425 283.862 520.335C283.423 520.301 282.369 519.936 282.998 521.172C283.094 521.358 282.846 521.655 282.673 521.525C281.911 520.94 280.578 521.544 280.138 520.221C279.993 519.781 279.333 519.728 278.812 519.681C278.162 519.626 278.18 520.137 278.133 520.478C277.917 522.036 277.365 523.511 277.099 525.064C276.935 526.011 277.074 526.65 277.557 527.44C278.942 529.702 279.977 532.146 280.879 534.634C281.288 535.767 281.932 536.24 283.122 536.118C283.881 536.044 284.653 536.102 285.83 536.102C284.755 536.815 284.963 537.442 285.176 538.219C285.988 541.144 286.651 544.106 287.445 547.036C287.547 547.413 287.624 547.876 288.061 548.195C291.915 551.04 295.432 554.332 299.565 556.81C301.932 558.23 304.188 559.81 305.979 561.958C306.078 562.075 306.199 562.288 306.295 562.282C308.498 562.123 308.405 564.085 309.052 565.308C309.638 566.409 309.133 567.733 308.235 568.021C305.031 569.068 302.62 571.472 299.54 572.706C294.564 574.705 289.551 574.817 284.476 573.328C283.577 573.067 282.193 573.365 281.985 571.833C281.979 571.78 281.706 571.727 281.56 571.727C278.533 571.743 275.863 570.344 273.058 569.515C268.191 568.074 263.373 566.473 258.539 564.925C255.038 563.803 251.686 562.314 248.364 560.746C247.113 560.155 247.041 558.937 246.533 557.932C246.511 557.89 246.518 557.831 246.527 557.783C246.595 557.326 249.324 554.784 249.83 554.704C252.563 554.279 252.485 554.274 252.522 551.423C252.569 547.626 252.878 543.834 253.452 540.08C253.675 538.618 253.867 537.15 254.164 535.693C254.375 534.65 255.345 534.156 255.556 533.188C255.571 533.124 255.735 533.012 255.779 533.034C256.993 533.597 258.189 533.23 259.407 533.039C259.735 532.986 260.135 533.512 260.532 533.161C260.891 532.837 260.811 532.411 260.618 532.018C258.753 528.211 259.983 524.317 260.275 520.447C260.408 518.702 260.817 517.014 261.3 515.338C261.498 514.653 261.319 514.142 260.65 513.816C258.524 512.788 257.195 510.802 255.435 509.417C253.124 507.598 253.907 505.683 254.14 503.616C254.375 501.528 254.301 499.427 254.533 497.33C255.14 491.842 255.627 486.343 256.095 480.84C256.535 475.697 257.3 470.587 257.703 465.438C258.028 461.274 258.716 457.137 259.159 452.979C259.546 449.36 259.785 445.729 260.148 442.11C260.497 438.609 261.009 435.123 261.291 431.619C261.576 428.062 262.192 424.551 262.635 421.019C263.103 417.289 263.729 413.577 264.293 409.859C264.866 406.088 265.443 402.32 266.022 398.552C266.58 394.924 267.175 391.299 267.692 387.662C268.303 383.373 268.848 379.079 269.427 374.788C269.929 371.063 270.471 367.342 270.939 363.612C271.401 359.925 271.766 356.225 272.222 352.538C272.646 349.099 273.123 345.666 273.591 342.233C274.053 338.856 274.561 335.485 274.992 332.104C275.435 328.616 275.937 325.13 276.166 321.626C276.315 319.324 276.433 317.012 276.544 314.704C276.575 314.034 276.621 313.353 276.532 312.693C276.386 311.618 277.511 310.217 276.755 309.666C275.416 308.687 273.647 308.296 272.061 307.658C271.776 307.543 271.565 307.648 271.395 307.872C268.81 311.305 265.257 313.7 262.131 316.55C259.326 319.107 256.476 321.613 253.613 324.101C249.43 327.739 245.21 331.336 241.011 334.958C236.163 339.147 231.348 343.377 226.471 347.531C218.208 354.577 210.499 362.208 202.876 369.93C198.322 374.546 193.746 379.145 189.284 383.848C182.427 391.076 175.338 398.07 168.277 405.09C162.415 410.918 156.521 416.713 150.597 422.478C146.734 426.237 142.765 429.884 138.895 433.636C135.384 437.041 131.945 440.517 128.481 443.969C125.33 447.114 122.172 450.256 119.059 453.438C118.225 454.29 117.608 454.68 116.49 453.729C115.818 453.159 114.724 452.861 113.81 452.843C109.773 452.759 106.234 451 102.616 449.583C95.898 446.956 90.1009 442.832 84.6106 438.212C82.9158 436.787 81.4007 435.179 79.6995 433.766C79.0151 433.196 78.6678 433.28 78.2248 433.872C75.5972 437.379 71.9597 439.764 68.6137 442.47C68.1984 442.804 67.6501 442.872 68.2266 443.532C68.4558 443.795 68.1027 443.969 67.9415 444.127C67.5384 444.527 67.1108 444.898 66.6955 445.283C65.6484 446.243 64.1796 446.643 64.1737 448.691C64.1706 450.225 62.5996 451.492 61.5057 452.669C59.7184 454.59 57.8715 456.456 55.8916 458.197C54.4818 459.439 52.8923 459.229 51.4607 458.956C48.8458 458.463 46.1688 458.246 43.6715 456.97C42.6488 456.446 40.9886 457.1 39.6341 457.308C34.0912 458.156 28.6227 459.433 22.94 459.337C17.4652 459.247 12.8178 457.267 8.6597 453.918C6.37617 452.078 4.24155 450.057 2.66743 447.545C1.65436 445.927 1.50865 444.272 3.26198 443.08C3.51033 442.913 3.60286 442.466 3.69593 442.131C4.15168 440.471 4.42395 438.739 5.05945 437.15C5.91457 435.005 7.81042 433.716 9.86474 433.025C13.2608 431.882 16.8983 431.901 20.4304 431.47C24.889 430.928 29.2731 430.045 33.6572 429.143C36.7156 428.514 39.7553 427.823 42.9153 428.006C44.3006 428.087 45.6482 427.56 47.0548 427.687C47.6961 427.743 48.5145 427.792 48.6847 428.322C49.3229 430.327 49.8621 428.716 50.3237 428.304C54.2866 424.737 58.4325 421.434 63.2692 419.098C63.4952 418.99 63.7212 418.838 63.9632 418.795C64.8582 418.637 65.8994 418.782 66.2743 419.51C66.7827 420.489 65.7106 421.031 65.0507 421.537C60.657 424.904 56.0681 427.99 51.1326 431.083L51.1203 431.101ZM304.6 456.595C304.47 457.091 304.222 457.586 304.229 458.076C304.278 461.571 303.649 465.044 303.934 468.763C304.163 464.561 304.38 460.579 304.597 456.595C304.86 454.036 304.848 451.461 304.991 448.895C305.347 442.482 305.809 436.077 306.233 429.667C306.345 427.975 306.443 426.28 306.586 424.589C307.079 418.754 307.602 412.92 308.086 407.086C308.433 402.893 308.687 398.695 309.071 394.506C309.527 389.555 310.116 384.619 310.574 379.668C310.952 375.581 311.15 371.479 311.562 367.395C312.092 362.137 312.42 356.87 312.839 351.606C313.062 348.786 312.891 345.957 313.288 343.138C313.573 341.121 313.344 339.032 313.344 336.975L312.956 336.941C312.789 337.703 312.483 338.462 312.479 339.224C312.452 344.169 311.878 349.074 311.599 354.001C311.237 360.374 310.53 366.713 310.001 373.068C309.257 381.989 308.299 390.893 307.571 399.817C306.936 407.615 306.441 415.427 305.982 423.241C305.35 433.983 304.814 444.728 304.238 455.474C304.216 455.888 304.207 456.31 304.603 456.592L304.6 456.595ZM44.4708 440.421C44.1331 439.098 43.4513 438.039 42.4664 437.199C40.3812 435.421 37.859 434.432 35.3893 433.366C34.9713 433.187 34.5065 433.373 34.0449 433.484C26.6891 435.278 19.2807 436.648 11.6526 436.415C7.98432 436.303 7.91306 436.456 7.40466 440.034C7.39881 440.083 7.41423 440.142 7.39243 440.189C6.16824 442.869 6.96167 445.125 8.83306 447.176C11.876 450.513 15.222 453.41 19.6434 454.789C25.0097 456.465 30.3856 455.582 35.7488 454.829C38.7917 454.401 41.8155 454.008 44.8983 453.905C46.674 453.847 47.9971 454.931 49.6361 455.117C50.99 455.269 52.378 455.461 53.5804 456.208C54.0388 456.493 54.2989 456.424 54.4786 455.904C54.8939 454.699 55.7677 453.822 56.6568 452.967C57.7938 451.87 58.9404 450.779 60.2512 449.528C57.2764 449.236 53.2794 445.344 53.2736 442.906C53.2672 441.125 52.9853 439.318 53.4719 437.552C53.5522 437.261 53.4565 437.065 53.2517 436.877C52.5391 436.21 51.8914 435.458 51.1171 434.878C49.041 433.326 46.5219 433.097 44.0746 432.7C43.5539 432.617 42.8599 432.548 42.9371 432.006C43.1232 430.696 42.4909 431.213 41.924 431.433C41.506 431.597 41.0811 431.749 40.57 431.941C45.0722 434.578 46.2182 438.299 44.4708 440.431V440.421ZM256.879 537.368C256.671 537.714 256.541 537.836 256.522 537.974C256.061 541.915 255.689 545.871 255.125 549.801C254.855 551.689 254.787 552.886 256.829 554.215C263.416 558.512 269.567 563.537 277.26 565.829C280.693 566.851 283.491 569.217 287.391 569.43C293.3 569.754 298.88 569.456 304.021 566.244C305.703 565.191 305.719 565.149 304.021 563.99C300.293 561.453 296.104 559.65 292.56 556.832C290.611 555.284 288.392 553.986 287.19 551.647C285.836 549.009 284.383 546.419 283.147 543.733C282.282 541.851 281.065 539.952 282.121 537.501C280.966 539.266 279.729 539.346 278.329 538.107C278.199 537.995 277.948 537.979 277.753 537.979C276.101 537.969 274.45 537.905 272.804 537.995C271.85 538.049 271.063 538.463 270.933 539.633C270.809 540.745 270.496 541.83 270.36 542.941C270.304 543.404 270.071 543.547 269.721 543.659C269.148 543.845 269.219 543.324 269.086 543.047C268.622 542.106 268.86 541.053 268.699 539.899C268.104 540.325 267.639 540.708 267.125 541.005C265.201 542.117 264.268 544.217 262.561 545.552C261.244 546.579 260.603 546.584 259.373 545.441C258.821 544.93 258.511 544.302 258.279 543.611C257.607 541.633 257.306 539.564 256.879 537.363V537.368ZM263.822 526.253C264.668 528.354 265.164 530.421 265.731 532.47C265.855 532.917 265.845 533.555 266.397 533.789C268.47 534.666 270.552 535.512 272.885 535.294C273.774 535.209 274.821 534.773 275.475 535.613C275.816 536.054 275.968 536.56 276.516 536.123C276.993 535.741 276.414 535.363 276.253 535.001C275.233 532.693 273.892 530.458 274.078 527.824C274.18 526.396 273.672 526.142 272.364 526.167C269.557 526.219 266.763 526.956 263.816 526.253H263.822ZM252.727 298.025C252.584 297.817 252.442 297.607 252.299 297.399C238.112 305.446 225.015 315.144 211.797 324.656C225.25 315.488 239.023 306.806 252.73 298.028L252.727 298.025ZM279.736 298.514C281.151 298.139 282.375 297.411 283.559 296.643C290.484 292.154 297.384 287.633 304.29 283.113C305.877 282.074 307.497 281.077 308.888 279.766C309.495 279.193 309.548 278.716 308.647 278.459C306.394 277.811 304.132 277.192 301.876 276.559C303.854 277.855 306.202 278.028 308.662 279.063C299.085 285.957 288.944 291.549 279.739 298.512L279.736 298.514ZM271.339 517.841C268.281 519.545 266.961 522.442 264.647 524.289C266.976 524.332 269.467 524.401 271.946 524.657C272.711 524.738 273.756 525.414 274.251 524.698C274.821 523.877 273.731 523.158 273.387 522.405C272.609 520.707 272.386 520.67 270.803 521.6C270.36 521.86 269.917 522.027 269.539 521.729C269.155 521.426 269.483 520.999 269.589 520.608C269.849 519.644 270.819 519.174 271.342 517.844L271.339 517.841ZM281.799 489.962C279.801 491.201 271.088 508.189 271.184 511.13C274.691 504.137 278.199 497.141 281.799 489.962ZM157.243 332.396C151.427 334.438 146.353 338.091 140.348 339.674C139.759 339.829 139.393 340.436 139.663 341.037C139.933 341.635 140.457 341.26 140.85 341.068C142.87 340.089 144.912 339.153 146.889 338.096C150.362 336.238 153.795 334.301 157.243 332.399V332.396ZM269.678 518.008C268.947 517.494 268.116 517.693 267.441 517.221C266.456 516.537 265.665 516.363 265.557 518.101C265.455 519.799 265 521.476 264.699 523.161C266.245 521.249 267.999 519.728 269.675 518.008H269.678ZM66.8784 433.716C69.4965 432.394 71.7306 430.633 74.197 429.224C75.2037 428.65 74.2959 428.139 74.0609 427.675C73.8343 427.225 73.5062 427.098 73.0287 427.585C71.0057 429.654 68.9328 431.678 66.8784 433.716ZM260.817 536.714C261.851 537.586 262.772 538.415 264.179 537.692C264.634 537.458 264.925 538.043 265.219 538.33C265.436 537.926 265.56 537.421 265.879 537.155C266.809 536.379 266.273 535.948 265.52 535.911C263.918 535.831 262.307 535.943 260.82 536.708L260.817 536.714ZM338.967 274.877C336.631 272.91 335.256 270.375 334.565 267.27C334.283 269.938 336.309 273.461 338.967 274.877Z" fill="#1B1B1B"/>
<path d="M57.7413 101.246C58.4847 99.2348 58.1066 97.2581 58.4597 95.3522C58.7017 94.0573 59.5754 93.5675 60.5018 93.0814C61.4064 92.6071 61.8776 93.4468 62.4413 93.9424C63.2842 94.689 63.7644 95.659 63.9936 96.7189C64.5977 99.4885 66.175 101.893 66.7855 104.632C68.6228 104.096 69.453 102.24 71.2345 101.859C71.535 101.794 71.5381 101.456 71.4764 101.208C70.6181 97.8527 70.432 94.4013 69.9826 90.9867C69.7566 89.2642 70.4602 87.5476 71.7243 87.1072C72.8272 86.7233 74.3763 87.4699 75.315 88.8584C79.1572 94.5284 83.6067 99.7214 87.9658 104.988C88.8895 106.107 89.4564 107.582 89.9303 108.979C90.0914 109.453 90.2679 109.345 90.4631 109.351C92.7068 109.422 93.2178 109.961 93.23 112.137C93.2332 112.985 92.9046 113.738 92.7562 114.538C92.66 115.058 92.3627 115.393 91.7676 115.135C91.2996 114.934 90.9221 115.223 90.7269 115.505C90.0978 116.415 89.3139 116.239 88.5641 115.848C87.7648 115.433 87.0522 114.686 86.2369 115.811C86.1657 115.91 85.7785 115.919 85.6669 115.824C84.3565 114.674 84.1241 115.876 83.6902 116.694C83.027 117.943 81.7194 117.766 80.6164 118.048C77.5804 118.82 74.3886 118.284 71.3462 119.495C68.576 120.598 65.7538 121.648 62.847 122.457C60.8581 123.009 59.284 122.423 58.1188 121.134C54.1224 116.722 49.0251 113.67 44.5666 109.837C43.9407 109.301 42.8686 109.053 43.4732 107.848C43.947 106.9 45.6137 106.082 46.5933 106.398C48.6657 107.064 50.7604 107.694 52.7775 108.508C53.7906 108.92 54.048 108.642 53.8464 107.758C53.1306 104.586 53.2205 101.271 52.1143 98.1686C51.6868 96.9667 52.1548 96.0621 53.2327 95.5601C54.3484 95.0427 55.0084 95.9068 55.4604 96.6907C56.2847 98.1287 56.9574 99.6528 57.7503 101.252L57.7413 101.246Z" fill="white"/>
<path d="M221.925 65.391C220.76 66.8566 219.871 68.2908 218.387 69.23C217.327 69.9022 216.422 70.7169 215.034 70.0787C214.468 69.8187 214.12 70.3792 213.745 70.7233C212.704 71.6773 211.282 72.1857 210.281 71.2747C209.373 70.4478 208.342 69.3661 208.379 67.808C208.469 64.2758 209.37 60.9074 210.412 57.5768C211.502 54.0882 213.123 50.8315 214.972 47.6866C215.103 47.4666 215.211 47.132 215.406 47.0639C218.486 45.964 219.976 43.0453 222.266 41.053C226.074 37.7408 230.183 34.8345 234.282 31.9158C240.252 27.6647 246.294 23.5129 252.655 19.8568C254.248 18.9428 255.877 18.0815 257.702 17.6539C258.313 17.5113 258.741 17.1178 258.942 16.3029C259.366 14.5864 260.463 13.2882 262.251 12.7707C263.215 12.4919 263.961 11.6027 265.083 11.7731C265.154 11.7855 265.306 11.6864 265.318 11.6182C265.972 8.63447 268.711 9.14255 270.685 8.52285C273.591 7.6088 276.593 7.00463 279.537 6.21145C280.854 5.85824 281.712 4.72733 282.855 4.04878C285.836 2.27649 288.804 0.532034 292.321 0.0424892C293.48 -0.118628 294.462 0.18815 295.493 0.776846C299.94 3.32063 302.942 7.32375 306.186 11.0914C307.301 12.3865 308.157 13.8924 309.876 14.633C311.135 15.1752 311.181 16.6624 311.429 17.784C312.37 22.0443 313.232 26.3262 313.929 30.633C314.158 32.049 314.927 33.0963 315.602 34.1807C320.343 41.8182 324.408 49.7936 327.968 58.0447C330.611 64.1673 332.978 70.3452 333.811 77.0256C334.456 82.1749 335.2 87.3153 336.002 92.4428C336.966 98.6122 338.143 104.747 339.026 110.925C339.751 115.988 340.356 121.082 340.315 126.219C340.284 130.182 341.746 133.763 343.116 137.37C345.57 143.821 348.002 150.281 350.466 156.729C354.339 166.873 358.655 176.828 363.132 186.718C366.546 194.263 370.146 201.714 373.83 209.126C375.69 212.862 377.905 216.42 379.928 220.076C380.765 221.584 381.598 223.121 380.883 224.955C380.799 225.169 380.796 225.625 380.501 225.324C379.811 224.621 379.439 225.451 379.126 225.646C377.734 226.53 377.084 226.511 376.049 225.163C373.161 221.396 370.887 217.243 368.638 213.085C363.24 203.106 358.441 192.831 353.796 182.486C349.663 173.28 345.843 163.948 342.692 154.355C340.65 148.137 338.468 141.952 337.108 135.536C336.641 133.333 336.126 131.176 337.211 128.834C337.722 127.731 337.053 126.061 336.866 124.651C336.271 120.137 335.701 115.616 335.036 111.111C334.406 106.866 333.607 102.646 332.984 98.3984C332.272 93.5309 331.652 88.6474 331.026 83.7677C330.506 79.7026 330.044 75.6344 329.539 71.5662C329.424 70.6488 329.278 69.6948 329.297 68.8115C329.368 65.0097 327.255 61.9763 325.867 58.7292C323.252 52.6162 320.25 46.6765 316.866 40.9414C316.405 40.1606 315.949 39.3737 315.444 38.5093C314.979 38.9709 314.54 39.6649 313.938 39.5627C313.198 39.4356 313.198 38.5712 313.009 37.9546C311.547 33.1552 309.433 28.6346 307.072 24.2256C306.078 22.3665 306.939 20.2689 306.276 18.3479C306.013 17.5888 305.61 16.6778 306.347 15.8692C306.614 15.5779 306.288 15.4013 306.125 15.2681C302.177 12.0984 298.859 8.1759 294.422 5.57633C292.972 4.72738 291.639 4.55694 290.096 5.15803C284.175 7.46324 278.155 9.52049 272.414 12.2811C271.971 12.495 271.515 12.6809 271.088 12.873C271.295 13.7375 272.968 13.9357 272.228 15.0883C271.531 16.1666 270.613 15.0389 269.795 14.9738C267.961 14.8282 266.139 14.6143 264.302 14.9242C263.295 15.0946 262.759 15.5997 262.561 16.6655C261.758 20.9847 261.145 25.3193 261.027 29.7159C261.018 30.1217 260.912 30.4936 260.572 30.9552C267.013 29.3688 273.036 29.9049 278.824 32.6531C280.513 33.4525 282.465 33.4123 284.051 34.6021C285.938 36.0118 287.131 37.7377 287.134 40.0863C287.134 40.9817 287.382 41.3752 288.113 41.8369C292.612 44.6719 296.457 48.1143 297.994 53.4527C298.688 55.8633 299.252 58.3202 298.542 60.8611C298.418 61.3009 298.543 61.7349 298.766 62.1874C299.729 64.1423 299.549 66.1312 298.846 68.1329C298.223 69.9022 297.7 71.7055 297.074 73.4748C296.817 74.2028 297.012 74.5495 297.684 74.8936C299.577 75.854 300.005 77.0224 299.519 79.1634C298.809 82.2712 297.269 84.9355 295.255 87.3461C294.775 87.9226 294.728 88.2448 295.174 88.9107C298.072 93.2208 298.323 97.6794 296.29 102.522C294.945 105.729 293.715 108.936 291.676 111.783C287.463 117.667 281.749 119.786 274.644 119.105C269.702 118.631 264.952 117.432 260.169 116.264C258.257 115.796 256.225 116.319 254.462 116.982C252.525 117.711 250.647 118.696 248.504 119.597C249.033 119.892 249.364 120.062 249.681 120.257C250.003 120.456 250.257 120.719 250.164 121.137C250.074 121.55 249.749 121.658 249.371 121.738C247.382 122.163 245.417 122.386 243.614 121.119C242.778 120.53 242.055 120.831 241.653 121.571C240.711 123.309 239.056 123.929 237.374 124.539C226.468 128.499 215.332 131.687 204.063 134.426C201.454 135.061 198.796 135.502 195.883 136.087C200.806 139.003 205.965 141.011 210.573 144.029C209.067 144.583 207.862 143.759 206.666 143.3C199.235 140.456 191.738 137.754 184.853 133.667C184.215 133.289 183.533 133.159 182.792 133.202C182.284 133.234 181.869 133.323 181.776 133.906C181.674 134.541 182.263 134.498 182.579 134.637C185.875 136.078 189.209 137.435 192.704 139.375C191.183 139.511 190.287 138.758 189.358 138.371C179.611 134.303 169.556 131.093 159.601 127.61C154.919 125.974 150.309 124.13 145.68 122.346C142.978 121.304 140.202 120.44 137.618 119.108C137.138 118.86 136.722 118.869 136.363 119.26C135.591 120.096 134.142 120.235 133.959 121.707C133.903 122.147 133.444 121.788 133.181 121.757C130.16 121.392 127.139 121.004 124.217 120.047C123.78 124.493 122.82 128.815 121.878 133.144C121.618 134.342 121.314 135.557 121.608 136.815C121.766 137.484 120.892 137.051 120.775 137.667C122.175 138.563 123.889 138.439 125.466 138.764C126.659 139.012 127.873 139.402 129.047 139.455C133.487 139.653 136.137 142.969 139.331 145.218C149.063 152.069 158.706 159.049 168.029 166.457C170.321 168.279 172.528 170.21 174.733 172.134C175.542 172.841 176.27 173.119 177.454 173.045C184.431 172.608 191.369 172.859 198.176 174.765C202.294 175.917 206.588 176.289 210.709 177.46C211.421 177.661 211.778 177.432 211.821 176.54C211.918 174.551 212.234 172.574 212.376 170.585C212.438 169.73 212.952 168.896 213.557 169.129C214.328 169.426 215.552 169.06 215.893 170.219C217.023 174.036 218.898 177.544 220.428 181.19C220.518 181.404 220.441 181.692 220.441 182.079C218.099 181.46 218.015 179.04 216.584 177.693C216.481 177.953 216.292 178.231 216.274 178.52C216.146 180.589 214.873 181.385 213.06 180.23C211.626 179.313 210.064 179.223 208.556 179.093C202.672 178.575 196.862 177.618 191.037 176.657C187.744 176.115 184.363 175.539 180.961 176.156C179.418 176.434 177.888 176.001 176.367 175.836C175.366 175.728 174.504 175.378 174.12 173.983C173.878 173.107 172.357 172.58 171.409 171.898C162.888 165.76 153.807 160.472 145.153 154.538C140.422 151.294 135.7 148.035 131.588 143.991C131.48 143.883 131.291 143.827 131.229 143.703C130.033 141.267 128.013 141.075 125.559 141.178C123.313 141.271 121.035 140.815 118.748 140.828C118.07 140.831 117.481 140.356 117.323 139.492C117.091 138.197 116.691 136.933 116.431 135.644C116.304 135.015 116.214 134.761 115.464 135.071C113.035 136.072 112.226 135.836 111.188 133.37C110.438 131.588 109.246 130.55 107.554 129.813C104.889 128.651 102.212 127.449 99.8419 125.766C97.9551 124.428 96.4708 122.572 94.5718 121.196C93.9863 120.772 93.8156 119.92 93.7565 119.111C93.7383 118.875 93.7029 118.577 93.5636 118.423C93.423 118.268 93.1764 118.259 92.7344 118.609C90.1191 120.673 86.6954 119.594 85.3169 116.251C83.5785 117.841 81.4934 118.656 79.2439 119.108C78.9466 119.167 78.6211 119.319 78.3515 119.253C74.9927 118.454 72.1019 119.954 69.1493 121.112C67.8757 121.611 66.559 122.061 65.3784 122.733C62.4817 124.39 60.3465 123.269 57.9237 121.441C53.2205 117.89 49.2453 113.488 44.4517 109.986C46.1779 110.829 47.978 111.545 49.6106 112.543C53.5023 114.925 57.4807 117.221 60.613 120.632C61.3474 121.431 62.0414 120.964 62.7173 120.768C63.566 120.521 62.9215 119.948 62.8438 119.52C62.1966 115.957 62.2711 115.855 65.7751 114.621C67.8821 113.881 69.9242 112.899 72.2476 113.075C72.6039 113.103 72.7746 112.784 73.0442 112.672C73.6605 112.421 74.3327 111.854 74.9278 112.663C75.4607 113.388 75.399 114.216 75.0241 114.971C74.8688 115.284 74.4258 115.827 74.0631 115.356C72.6597 113.528 71.0643 115.058 69.6173 115.123C68.1889 115.186 66.7914 115.88 65.3784 116.279C64.737 116.459 64.3621 116.688 64.6472 117.49C64.8982 118.2 64.9476 118.984 65.0965 119.799C68.2293 118.272 71.3552 116.694 74.8475 116.35C76.5078 116.189 76.7029 115.693 76.5205 114.122C75.9595 109.299 78.6025 106.457 81.7289 105.178C83.1914 104.579 84.7341 104.427 86.5996 104.607C84.0683 102.451 81.7906 100.394 79.6528 98.1873C77.1305 95.5847 74.8475 92.8305 73.6483 89.3355C73.3133 88.3624 72.3656 88.2571 71.5722 88.0215C71.1414 87.8944 70.8718 88.0279 71.0611 88.7096C71.82 91.4329 73.1155 94.0079 73.3941 96.8706C73.4558 97.5183 73.8621 97.1311 74.1844 97.0721C75.0826 96.911 75.9473 96.5111 76.8923 96.6632C77.1677 96.7062 77.5458 96.5206 77.6575 96.9514C77.7442 97.2859 77.5644 97.5741 77.3262 97.7725C76.5604 98.4106 75.6404 98.7111 74.6832 98.9403C74.0014 99.1014 73.4558 99.2966 73.8126 100.272C74.2242 101.4 74.0168 102.628 73.9333 103.802C73.8897 104.403 73.6265 104.861 74.2056 105.435C74.8129 106.039 73.986 106.277 73.6079 106.5C70.2273 108.499 66.8318 110.47 63.4389 112.449C62.8534 112.793 62.1312 112.914 62.1626 113.921C62.1839 114.665 61.5335 114.668 60.8953 114.513C55.4758 113.202 50.3637 111.151 45.6849 108.108C44.799 107.533 44.3805 107.542 44.1114 108.573C44.0986 108.623 44.0555 108.66 44.0369 108.71C43.7019 109.534 43.4977 110.87 42.3883 110.451C41.6694 110.181 42.0602 108.902 42.4102 108.112C42.8255 107.182 43.2685 106.259 43.7827 105.382C44.7804 103.69 46.187 104.527 47.4202 104.951C49.0002 105.494 50.5216 106.206 52.2287 106.912C51.8511 104.604 51.482 102.392 51.2284 100.164C51.0885 98.9249 51.1475 97.7012 51.0731 96.4712C51.0332 95.7772 51.1784 95.1295 50.4413 94.5498C49.775 94.0292 50.1935 93.4469 50.946 93.2613C53.053 92.7465 55.3519 93.9148 56.39 95.8575C56.8548 96.7344 56.9632 97.7937 57.8832 98.7047C57.8832 97.664 57.8832 96.8147 57.8832 95.9692C57.8896 93.5245 59.4728 91.752 61.8526 91.3713C62.9523 91.1942 63.6591 91.5446 64.0462 92.5269C65.3103 95.7272 66.6026 98.9153 67.7459 102.16C67.9969 102.869 68.1421 102.9 68.7526 102.733C71.2068 102.067 71.0829 102.094 70.9308 99.9938C70.6522 96.1548 69.295 92.5545 68.6627 88.7963C68.6223 88.5543 68.4085 88.2911 68.4676 88.0959C68.7186 87.2658 69.2918 86.3947 70.1161 86.5C71.5382 86.683 71.2621 84.8084 72.4895 84.8706C73.6111 84.9264 74.3918 85.3444 75.0331 86.2894C78.5871 91.5324 82.1687 96.753 85.7785 101.955C86.6523 103.213 87.6404 104.394 88.6444 105.553C88.9975 105.958 89.3448 106.41 89.3692 106.866C89.416 107.743 89.8776 107.771 90.553 107.811C92.8301 107.941 95.7954 110.169 96.2943 112.019C96.4277 112.509 96.3937 112.986 96.4027 113.605C97.1526 111.135 98.9899 111.793 100.642 111.975C100.843 111.997 101.131 112.118 101.168 111.917C101.546 109.816 103.424 109.27 104.908 109.168C106.848 109.038 108.484 110.426 109.568 112.034C110.578 113.527 111.882 114.355 113.543 114.9C115.092 115.412 116.567 116.149 118.079 116.778C118.417 116.92 118.721 117.332 119.105 116.744C120.081 115.257 121.06 114.913 122.829 115.43C125.748 116.285 128.664 117.149 131.554 118.082C132.134 118.268 132.434 118.206 132.89 117.834C134.553 116.471 136.239 116.264 138.374 117.144C148.032 121.119 157.639 125.221 167.536 128.604C171.461 129.946 175.279 131.604 179.152 133.122C179.059 130.643 183.155 129.432 185.023 130.399C186.749 131.291 188.531 132.084 190.238 133.013C190.864 133.354 191.31 133.472 192.057 133.249C197.29 131.681 202.554 130.209 207.877 128.688C207.037 127.688 206.099 126.743 205.361 125.655C203.174 122.429 202.055 118.907 202.83 114.978C203.096 113.627 203.772 112.462 205.079 111.842C205.814 111.495 206.148 110.9 206.167 110.185C206.235 107.455 208.091 105.999 210.12 104.784C211.939 103.693 213.928 102.915 216.041 102.535C216.797 102.398 217.082 102.169 216.534 101.385C214.988 99.1823 213.944 96.7408 213.733 94.0419C213.587 92.1982 214.04 90.4013 214.818 88.7219C215.264 87.7582 215.199 87.1759 214.22 86.4974C211.905 84.8924 211.353 81.7718 212.859 79.2905C214.514 76.5634 216.856 74.4846 219.502 72.7712C220.552 72.0894 221.203 71.4885 221.151 70.0415C221.098 68.5668 221.609 67.0736 221.913 65.3723L221.925 65.391ZM290.403 90.6273C292.872 87.253 294.57 83.43 295.667 79.3463C295.897 78.4939 295.999 77.4499 294.846 76.8118C293.062 75.8232 292.879 75.0335 293.511 72.9977C294.186 70.8195 295.113 68.7248 295.537 66.4599C295.778 65.1681 295.9 64.0524 294.828 63.0734C294.415 62.6953 294.285 62.1438 294.155 61.5769C293.904 60.4644 294.01 59.3274 293.82 58.2303C292.959 53.1647 290.759 48.7928 286.936 45.2761C285.997 44.4117 284.99 43.5843 284.333 42.4441C284.16 42.1405 283.738 41.8152 284.085 41.5116C284.758 40.9229 284.281 40.4364 284.064 39.9252C283.097 37.6571 281.436 36.0583 279.27 34.9367C278.831 34.7074 278.207 34.6548 278.037 34.094C277.789 33.2823 277.151 33.307 276.497 33.1737C273.56 32.5726 270.604 32.7833 267.648 32.8793C266.012 32.932 264.445 33.3194 262.889 33.7966C262 34.0723 261.47 34.4937 261.65 35.5409C261.764 36.2164 261.458 36.9879 260.72 36.7741C259.757 36.4953 258.784 36.554 257.835 36.4487C254.35 36.0614 250.896 36.4023 247.722 38.0011C244.788 39.479 242.412 41.7779 239.8 43.7361C236.76 46.0135 235.45 49.6573 232.866 52.3096C232.329 52.8579 232.419 54.5774 232.866 55.4081C234.09 57.6943 233.269 59.7949 232.729 61.9332C232.206 64.012 230.811 65.7691 230.185 67.7675C229.588 69.6852 228.723 71.3582 227.034 72.1979C225.46 72.9791 224.581 74.2304 223.583 75.4791C223.199 75.9593 222.824 76.4459 222.43 76.9139C220.943 78.6768 219.453 80.4397 218.346 82.4786C217.395 84.2324 217.43 85.363 218.626 86.1347C219.775 86.8755 219.744 87.721 219.205 88.7559C218.716 89.7009 218.142 90.6151 217.758 91.6005C216.862 93.9021 216.76 96.2787 217.491 98.643C218.074 100.527 218.669 102.413 220.986 102.984C221.492 103.108 221.907 103.728 221.848 104.431C221.78 105.233 221.244 105.469 220.562 105.67C219.351 106.026 218.154 106.435 216.977 106.894C214.495 107.861 212.144 109.035 210.598 111.352C210.225 111.91 209.879 112.477 210.452 113.109C211.013 113.726 211.165 114.665 210.548 114.987C209.838 115.356 208.705 116.037 207.995 114.897C207.561 114.2 207.298 114.333 206.861 114.779C206.287 115.368 205.848 115.991 205.578 116.818C205.005 118.575 205.364 120.279 205.746 121.949C205.993 123.036 205.897 124.446 206.92 125.094C207.75 125.62 208.444 126.191 208.819 127.018C209.386 128.273 210.257 128.118 211.27 127.815C213.891 127.021 216.497 126.16 219.149 125.481C227.034 123.467 234.576 120.397 242.279 117.834C245.925 116.623 249.572 115.303 253.176 113.924C255.032 113.215 256.928 113.354 258.799 113.066C260.051 112.874 261.188 112.168 262.49 112.127C263.097 112.109 263.224 111.833 263.15 111.223C262.811 108.344 262.155 105.515 261.954 102.615C261.848 101.115 261.461 100.065 259.729 99.1355C256.221 97.2518 252.85 94.9311 250.499 91.5138C250.309 91.2378 250.226 90.9059 249.798 90.7666C248.509 90.3454 247.248 89.8312 246.025 89.3696C245.513 91.1139 244.863 92.6848 243.23 93.6176C242.774 93.8776 242.115 94.2243 242.164 93.3229C242.272 91.3893 242.4 89.4036 244.274 88.0901C243.329 87.3062 242.396 86.5346 241.439 85.7411C240.568 87.554 239.388 88.9138 237.848 90.0141C236.184 91.2037 234.542 92.387 232.599 93.1092C231.729 93.4314 231.183 93.0347 230.734 92.4769C230.229 91.8483 231.006 91.5909 231.291 91.2718C233.346 88.9729 235.357 86.6271 237.551 84.4675C238.657 83.38 239.013 82.5961 238.396 81.0007C236.618 76.4028 238.929 73.1988 243.818 73.1339C244.162 73.1307 244.51 73.0876 244.894 73.0626C244.426 71.43 243.961 69.8804 243.549 68.3158C243.397 67.7335 243.153 67.6341 242.641 67.9037C241.451 68.5296 240.215 68.6812 238.749 68.3094C241.151 66.2583 243.406 64.3375 245.656 62.4071C249.095 59.4513 252.293 56.2569 255.14 52.7215C256.813 50.6456 258.152 48.3466 259.565 46.0971C260.813 44.108 261.557 44.0986 263.084 45.8338C263.18 45.9422 263.369 45.9609 263.487 46.0569C265.216 47.4915 267.212 48.0987 269.446 48.0585C271.302 48.0275 273.39 47.5504 273.984 50.2521C274.068 50.6364 274.576 50.9555 274.939 51.2405C277.467 53.2299 280.051 55.1321 283.032 56.4148C283.453 56.5977 283.884 56.9072 284.336 56.7216C286.034 56.0276 286.328 57.2391 286.654 58.3915C287.853 62.6395 288.993 66.9028 290.245 71.1354C290.961 73.5583 291.955 75.9099 292.02 78.4848C292.098 81.6915 291.299 84.7435 290.189 87.712C289.802 88.7469 289.448 89.6759 290.406 90.6241L290.403 90.6273ZM287.311 95.1231C286.849 95.6405 286.796 96.4185 286.022 96.2324C285.746 96.1643 285.811 95.7926 285.858 95.5538C286.93 89.8961 287.738 84.2011 288.361 78.4752C288.473 77.4531 288.349 76.6475 288.039 75.7179C286.995 72.5883 285.882 69.481 285.473 66.1684C285.17 63.6929 284.649 61.2451 284.315 58.7728C284.218 58.0665 283.912 57.7687 283.298 57.6698C278.48 56.8918 274.418 54.754 271.255 50.9958C270.855 50.5217 270.462 50.4474 269.82 50.4845C267.267 50.6333 264.708 50.5991 262.372 49.3133C261.904 49.0561 261.579 49.0747 261.231 49.5426C259.837 51.4388 258.474 53.3628 256.984 55.1816C253.916 58.9275 250.623 62.4661 246.734 65.3846C244.974 66.7045 244.955 66.6582 245.879 68.5886C246.273 69.4124 246.648 70.2462 246.979 71.0982C247.887 73.428 248.64 75.8046 248.577 78.3391C248.568 78.773 248.59 79.4915 247.964 79.5973C247.326 79.7053 246.836 79.2038 246.756 78.6364C246.468 76.6039 245.027 76.7033 243.592 76.8708C242.285 77.0224 241.058 77.5116 240.451 78.7576C239.921 79.8419 240.491 80.7869 241.145 81.7101C242.79 84.0373 244.869 85.9581 246.904 87.913C247.983 88.9479 249.179 89.8684 250.858 88.9819C251.156 88.824 251.785 88.7282 251.986 89.1399C252.565 90.33 253.619 91.0984 254.573 91.8451C258.214 94.6923 261.089 98.6643 266.139 99.805C264.392 99.8295 264.581 100.685 265.03 101.692C265.108 101.865 265.03 102.104 265.067 102.305C265.576 105.221 265.331 108.161 265.362 111.092C265.371 111.92 265.411 112.35 266.48 112.607C270.263 113.512 274.025 114.51 277.907 114.854C281.04 115.13 284.197 115.244 286.939 113.242C288.157 112.353 289.173 111.43 288.937 109.608C288.321 104.849 287.856 100.071 287.311 95.1263V95.1231ZM210.731 67.817C213.259 65.8558 215.27 63.4047 217.349 61.0223C217.717 60.5979 217.931 60.3963 217.327 59.7922C216.726 59.1913 217.089 58.2303 217.981 57.8496C218.675 57.555 219.431 57.3694 220.177 57.2327C221.829 56.929 223.493 56.6754 225.154 56.4212C225.705 56.3377 226.232 56.4829 226.412 57.0593C226.561 57.5395 226.123 57.7874 225.767 57.9639C225.306 58.1936 225.216 58.559 225.045 59.0174C224.621 60.1517 224.927 61.168 225.07 62.2863C225.321 64.2566 225.175 66.2705 224.59 68.2137C224.491 68.5387 224.314 69.2763 224.971 68.9572C226.161 68.3807 227.716 68.2509 227.992 66.37C228.283 64.3747 229.157 62.4597 229.371 60.4644C229.588 58.4782 230.855 56.6227 230.086 54.5062C229.281 52.2971 229.634 51.3924 232.348 49.7223C232.962 49.3443 233.337 49.0314 233.51 48.2816C235.134 41.2823 240.172 37.3504 246.461 35.2125C249.975 34.0196 253.77 32.8949 257.69 33.4806C258.167 33.5518 259.552 31.6091 259.394 31.1692C258.858 29.6757 258.734 28.1172 258.517 26.5556C258.229 24.489 258.344 22.4099 258.201 20.2131C253.408 23.1597 248.72 25.8987 244.184 28.867C237.365 33.3287 230.681 38.0041 224.237 42.9863C221.247 45.2977 217.944 47.287 216.419 51.2591C214.334 56.694 212.042 62.0385 210.734 67.8106L210.731 67.817ZM291.407 108.422C293.972 106.361 294.27 103.421 295.082 100.821C296.228 97.1588 294.93 93.667 293.501 90.2864C293.281 89.7658 292.999 89.9923 292.665 90.2093C292.151 90.5406 291.624 90.8969 291.048 91.0862C290.419 91.2904 290.409 91.6903 290.515 92.1674C291.187 95.2379 291.398 98.3548 291.404 101.487C291.407 103.737 291.404 105.983 291.404 108.425L291.407 108.422ZM59.8355 95.8048C59.8355 97.7384 59.7238 99.6811 59.8817 101.599C59.9658 102.627 59.8355 103.675 60.1609 104.71C60.4678 105.682 60.7464 106.033 61.7377 105.357C62.5652 104.793 63.5102 104.366 64.4552 104.016C65.2672 103.715 65.2858 103.427 64.7929 102.789C63.089 100.57 61.7223 98.15 60.7002 95.5416C60.5917 95.2688 60.7959 94.6705 60.1641 94.9311C59.8169 95.0736 59.3585 95.2438 59.8355 95.8016V95.8048ZM61.3043 108.595C61.9887 108.799 62.3546 108.759 62.7758 108.626C65.8682 107.653 68.5324 105.63 71.7455 104.939C71.8913 104.908 72.3933 104.911 72.2603 104.4C72.0646 103.653 70.683 102.838 69.989 103.204C67.0301 104.75 64.0957 106.342 61.3075 108.598L61.3043 108.595ZM52.9386 98.4787C52.9631 98.776 52.9631 99.0796 53.0189 99.371C53.6018 102.429 55.0855 105.261 55.287 108.422C55.3306 109.082 56.1422 108.964 56.5107 109.335C56.7431 109.568 57.1552 109.599 57.2329 109.187C57.3291 108.682 58.1625 108.478 57.6881 107.728C55.8449 104.809 54.6239 101.574 52.9386 98.4755V98.4787ZM86.9309 106.637C85.0473 106.463 83.3897 106.544 81.9826 107.876C82.4846 108.14 82.8627 108.415 83.2844 108.549C84.3161 108.87 85.1462 110.529 85.9115 109.993C86.6395 109.481 86.5996 107.879 86.9309 106.637ZM85.2361 111.402C83.9284 111.04 82.5841 110.776 81.329 110.28C80.3005 109.871 79.873 110.141 79.6932 111.139C81.0536 111.291 81.2578 111.377 82.2772 112.233C83.8944 113.593 84.248 113.493 85.2329 111.402H85.2361ZM82.5405 114.448C81.1589 114.058 79.7363 113.871 79.3401 111.755V116.077C80.4893 115.656 81.5955 115.417 82.5405 114.445V114.448ZM112.062 120.199C111.644 119.312 111.291 118.476 110.857 117.676C110.587 117.178 110.256 117.63 109.955 117.729C109.503 117.878 109.664 118.119 109.807 118.423C110.104 119.058 110.333 119.724 110.634 120.359C110.782 120.676 111.015 121.035 111.446 120.676C111.653 120.502 112.102 120.583 112.062 120.201V120.199ZM88.3966 112.394C89.4501 112.183 89.9457 111.349 90.8721 111.508C91.4145 111.6 91.2938 111.086 91.3092 110.745C91.3278 110.373 91.3369 110.091 90.8258 109.98C88.9044 109.562 89.0347 111.154 88.3934 112.39L88.3966 112.394ZM114.888 130.906C114.659 130.29 115.17 129.233 113.915 129.205C112.905 129.181 113.441 129.996 113.332 130.438C113.119 131.297 113.522 131.808 114.367 131.898C115.256 131.991 114.683 131.257 114.888 130.91V130.906ZM113.828 124.979C113.447 123.876 113.602 122.916 112.79 122.547C112.536 122.432 111.613 122.91 111.885 123.464C112.183 124.065 111.892 125.252 113.156 125.165C113.519 125.14 113.918 125.175 113.828 124.976V124.979ZM219.456 62.5778L219.753 62.8841C220.689 61.7067 221.628 60.5293 222.579 59.3365C220.082 59.1753 220.271 61.3132 219.456 62.5778ZM109.143 114.454C108.769 114.714 108.285 114.938 108.431 115.278C108.645 115.777 108.672 116.53 109.391 116.617C109.561 116.638 110.293 116.66 110.11 116.118C109.909 115.526 109.481 115.008 109.143 114.451V114.454ZM96.0528 118.247C97.0563 117.831 97.3169 116.964 97.5184 116.065C97.5647 115.861 97.5057 115.656 97.2829 115.557C97.0319 115.446 96.8675 115.616 96.7899 115.79C96.4554 116.561 95.8635 117.264 96.0496 118.243L96.0528 118.247Z" fill="#1B1B1B"/>
<mask id="mask0_194_1685" style="mask-type:alpha" maskUnits="userSpaceOnUse" x="-1" y="59" width="129" height="97">
<rect x="13.7344" y="59.2782" width="115.921" height="75.0855" transform="rotate(10.97 13.7344 59.2782)" fill="#D9D9D9"/>
</mask>
<g mask="url(#mask0_194_1685)">
<path d="M221.924 65.3911C220.759 66.8567 219.87 68.291 218.386 69.2301C217.326 69.9023 216.421 70.717 215.033 70.0788C214.467 69.8188 214.119 70.3793 213.744 70.7234C212.703 71.6774 211.281 72.1858 210.28 71.2749C209.373 70.4479 208.341 69.3662 208.378 67.8081C208.468 64.2759 209.369 60.9075 210.411 57.5769C211.501 54.0883 213.122 50.8316 214.971 47.6867C215.102 47.4667 215.21 47.1322 215.405 47.064C218.485 45.9641 219.975 43.0454 222.265 41.0531C226.073 37.7409 230.182 34.8346 234.281 31.9159C240.251 27.6649 246.293 23.513 252.654 19.857C254.247 18.9429 255.876 18.0816 257.701 17.654C258.312 17.5115 258.74 17.1179 258.941 16.303C259.365 14.5865 260.462 13.2883 262.25 12.7708C263.214 12.492 263.96 11.6029 265.082 11.7732C265.153 11.7856 265.305 11.6865 265.317 11.6183C265.971 8.63459 268.71 9.14267 270.684 8.52297C273.59 7.60892 276.592 7.00475 279.536 6.21158C280.853 5.85836 281.711 4.72745 282.854 4.0489C285.835 2.27661 288.803 0.532156 292.32 0.0426113C293.479 -0.118506 294.461 0.188272 295.492 0.776968C299.939 3.32076 302.941 7.32388 306.185 11.0915C307.3 12.3867 308.156 13.8926 309.875 14.6331C311.134 15.1753 311.18 16.6625 311.428 17.7841C312.369 22.0444 313.231 26.3263 313.928 30.6331C314.157 32.0491 314.926 33.0964 315.601 34.1808C320.342 41.8184 324.407 49.7937 327.967 58.0449C330.61 64.1674 332.977 70.3453 333.81 77.0257C334.455 82.1751 335.199 87.3154 336.001 92.4429C336.965 98.6123 338.142 104.747 339.025 110.925C339.75 115.988 340.355 121.082 340.314 126.219C340.283 130.182 341.745 133.763 343.115 137.37C345.569 143.821 348.001 150.281 350.465 156.729C354.338 166.873 358.654 176.828 363.131 186.718C366.545 194.263 370.145 201.715 373.829 209.126C375.689 212.863 377.904 216.42 379.927 220.076C380.764 221.585 381.597 223.121 380.882 224.956C380.798 225.169 380.795 225.625 380.5 225.324C379.81 224.621 379.438 225.451 379.125 225.646C377.733 226.53 377.083 226.511 376.048 225.163C373.16 221.396 370.886 217.243 368.637 213.085C363.239 203.106 358.44 192.831 353.795 182.486C349.662 173.281 345.842 163.948 342.691 154.356C340.649 148.137 338.467 141.953 337.107 135.536C336.64 133.333 336.125 131.176 337.21 128.834C337.721 127.731 337.052 126.061 336.866 124.651C336.27 120.137 335.7 115.616 335.035 111.111C334.405 106.866 333.606 102.646 332.983 98.3985C332.271 93.531 331.651 88.6475 331.025 83.7678C330.505 79.7027 330.043 75.6345 329.538 71.5663C329.423 70.6489 329.277 69.6949 329.296 68.8116C329.367 65.0098 327.254 61.9764 325.866 58.7293C323.251 52.6163 320.249 46.6766 316.865 40.9415C316.404 40.1607 315.948 39.3738 315.443 38.5094C314.978 38.971 314.539 39.665 313.937 39.5628C313.197 39.4358 313.197 38.5713 313.008 37.9547C311.546 33.1553 309.432 28.6348 307.071 24.2257C306.077 22.3666 306.938 20.269 306.275 18.348C306.012 17.5889 305.609 16.6779 306.346 15.8693C306.613 15.578 306.287 15.4014 306.124 15.2682C302.176 12.0985 298.858 8.17603 294.421 5.57645C292.971 4.7275 291.638 4.55706 290.095 5.15815C284.174 7.46337 278.154 9.52061 272.413 12.2813C271.97 12.4951 271.514 12.681 271.087 12.8732C271.294 13.7376 272.967 13.9358 272.227 15.0885C271.53 16.1667 270.612 15.039 269.794 14.974C267.96 14.8283 266.138 14.6145 264.301 14.9243C263.294 15.0947 262.758 15.5998 262.56 16.6656C261.758 20.9848 261.144 25.3194 261.026 29.716C261.017 30.1219 260.911 30.4937 260.571 30.9553C267.012 29.369 273.035 29.905 278.823 32.6533C280.512 33.4527 282.464 33.4124 284.05 34.6022C285.937 36.012 287.13 37.7378 287.133 40.0864C287.133 40.9819 287.381 41.3753 288.112 41.837C292.611 44.672 296.456 48.1144 297.993 53.4528C298.687 55.8634 299.251 58.3203 298.541 60.8613C298.417 61.301 298.542 61.735 298.765 62.1875C299.728 64.1424 299.548 66.1313 298.845 68.133C298.222 69.9023 297.699 71.7056 297.073 73.4749C296.816 74.2029 297.011 74.5496 297.683 74.8937C299.576 75.8541 300.004 77.0225 299.518 79.1635C298.808 82.2713 297.268 84.9356 295.254 87.3462C294.774 87.9227 294.727 88.245 295.173 88.9108C298.071 93.221 298.322 97.6795 296.289 102.522C294.944 105.729 293.714 108.936 291.675 111.783C287.462 117.667 281.748 119.786 274.643 119.105C269.701 118.631 264.951 117.432 260.168 116.264C258.256 115.796 256.224 116.319 254.461 116.983C252.524 117.711 250.646 118.696 248.503 119.597C249.032 119.892 249.364 120.062 249.68 120.257C250.002 120.456 250.256 120.719 250.163 121.138C250.073 121.55 249.748 121.658 249.37 121.738C247.381 122.163 245.417 122.386 243.613 121.119C242.777 120.53 242.055 120.831 241.652 121.571C240.71 123.309 239.055 123.929 237.373 124.539C226.467 128.499 215.331 131.687 204.062 134.427C201.453 135.062 198.795 135.502 195.882 136.087C200.805 139.003 205.964 141.011 210.572 144.029C209.066 144.583 207.861 143.759 206.665 143.301C199.234 140.456 191.737 137.754 184.852 133.667C184.214 133.29 183.532 133.159 182.791 133.202C182.283 133.234 181.868 133.324 181.775 133.906C181.673 134.541 182.262 134.498 182.578 134.637C185.874 136.078 189.208 137.435 192.703 139.375C191.182 139.511 190.286 138.758 189.357 138.371C179.61 134.303 169.555 131.093 159.6 127.61C154.918 125.974 150.308 124.13 145.679 122.346C142.977 121.305 140.201 120.44 137.617 119.108C137.137 118.86 136.721 118.869 136.362 119.26C135.59 120.096 134.141 120.236 133.958 121.708C133.902 122.147 133.443 121.788 133.18 121.757C130.159 121.392 127.138 121.004 124.216 120.047C123.779 124.493 122.819 128.815 121.877 133.144C121.617 134.343 121.313 135.557 121.607 136.815C121.765 137.484 120.891 137.051 120.774 137.667C122.174 138.563 123.888 138.439 125.465 138.764C126.658 139.012 127.872 139.403 129.047 139.455C133.486 139.654 136.136 142.969 139.33 145.218C149.062 152.069 158.705 159.049 168.028 166.458C170.32 168.28 172.527 170.21 174.732 172.134C175.541 172.841 176.269 173.119 177.453 173.045C184.43 172.608 191.368 172.859 198.175 174.765C202.293 175.917 206.587 176.289 210.708 177.46C211.42 177.661 211.777 177.432 211.82 176.54C211.917 174.551 212.233 172.574 212.375 170.585C212.437 169.73 212.951 168.896 213.556 169.129C214.327 169.426 215.551 169.06 215.892 170.219C217.022 174.036 218.897 177.544 220.427 181.19C220.517 181.404 220.44 181.692 220.44 182.08C218.098 181.46 218.014 179.04 216.583 177.693C216.48 177.953 216.291 178.232 216.273 178.52C216.145 180.59 214.872 181.386 213.059 180.23C211.625 179.313 210.063 179.223 208.555 179.093C202.671 178.576 196.862 177.618 191.036 176.657C187.743 176.116 184.362 175.539 180.96 176.156C179.417 176.435 177.887 176.001 176.366 175.836C175.365 175.728 174.503 175.378 174.119 173.984C173.877 173.107 172.356 172.58 171.408 171.898C162.887 165.76 153.806 160.472 145.152 154.538C140.421 151.294 135.699 148.035 131.587 143.991C131.479 143.883 131.29 143.827 131.228 143.703C130.032 141.268 128.012 141.076 125.558 141.178C123.312 141.271 121.034 140.816 118.747 140.828C118.069 140.831 117.481 140.357 117.322 139.492C117.09 138.197 116.69 136.933 116.43 135.644C116.303 135.015 116.213 134.761 115.463 135.071C113.034 136.072 112.225 135.836 111.187 133.37C110.437 131.588 109.245 130.55 107.553 129.813C104.888 128.651 102.211 127.449 99.8409 125.766C97.9541 124.428 96.4698 122.572 94.5708 121.196C93.9853 120.772 93.8146 119.92 93.7556 119.111C93.7373 118.875 93.7019 118.577 93.5626 118.423C93.422 118.268 93.1754 118.259 92.7334 118.609C90.1181 120.673 86.6944 119.594 85.316 116.251C83.5775 117.841 81.4924 118.656 79.2429 119.108C78.9456 119.167 78.6201 119.319 78.3505 119.253C74.9917 118.454 72.1009 119.954 69.1484 121.113C67.8747 121.611 66.558 122.061 65.3774 122.733C62.4807 124.391 60.3456 123.269 57.9227 121.441C53.2195 117.89 49.2443 113.488 44.4507 109.986C46.1769 110.829 47.9771 111.545 49.6097 112.543C53.5013 114.925 57.4797 117.221 60.612 120.632C61.3464 121.432 62.0404 120.964 62.7163 120.768C63.565 120.521 62.9205 119.948 62.8429 119.52C62.1957 115.957 62.2701 115.855 65.7741 114.621C67.8811 113.881 69.9232 112.899 72.2466 113.076C72.6029 113.103 72.7736 112.784 73.0432 112.672C73.6596 112.421 74.3318 111.855 74.9268 112.663C75.4597 113.388 75.398 114.216 75.0231 114.971C74.8678 115.285 74.4248 115.827 74.0621 115.356C72.6587 113.528 71.0633 115.059 69.6163 115.123C68.1879 115.186 66.7904 115.88 65.3774 116.279C64.7361 116.459 64.3611 116.688 64.6462 117.49C64.8972 118.2 64.9466 118.984 65.0955 119.799C68.2283 118.272 71.3542 116.694 74.8465 116.35C76.5068 116.189 76.702 115.694 76.5196 114.123C75.9585 109.299 78.6015 106.457 81.728 105.178C83.1904 104.58 84.7331 104.427 86.5987 104.607C84.0673 102.451 81.7896 100.394 79.6518 98.1874C77.1295 95.5848 74.8465 92.8306 73.6473 89.3357C73.3123 88.3625 72.3647 88.2572 71.5712 88.0216C71.1405 87.8945 70.8708 88.028 71.0602 88.7097C71.819 91.4331 73.1145 94.008 73.3931 96.8707C73.4548 97.5184 73.8611 97.1313 74.1834 97.0722C75.0816 96.9111 75.9463 96.5112 76.8913 96.6633C77.1668 96.7064 77.5449 96.5208 77.6565 96.9515C77.7432 97.286 77.5635 97.5742 77.3252 97.7726C76.5594 98.4108 75.6394 98.7112 74.6822 98.9404C74.0004 99.1015 73.4548 99.2967 73.8117 100.273C74.2233 101.4 74.0159 102.628 73.9324 103.802C73.8888 104.403 73.6255 104.861 74.2047 105.435C74.812 106.039 73.985 106.278 73.6069 106.5C70.2263 108.499 66.8308 110.47 63.4379 112.45C62.8524 112.793 62.1303 112.914 62.1616 113.921C62.1829 114.665 61.5325 114.668 60.8944 114.513C55.4748 113.203 50.3627 111.151 45.684 108.109C44.798 107.533 44.3795 107.542 44.1104 108.573C44.0976 108.623 44.0545 108.66 44.0359 108.71C43.7009 109.534 43.4967 110.87 42.3874 110.451C41.6684 110.182 42.0593 108.902 42.4092 108.112C42.8245 107.182 43.2675 106.259 43.7817 105.382C44.7794 103.69 46.186 104.527 47.4192 104.951C48.9992 105.494 50.5206 106.206 52.2277 106.913C51.8501 104.605 51.4811 102.392 51.2274 100.165C51.0875 98.925 51.1466 97.7013 51.0721 96.4713C51.0322 95.7773 51.1774 95.1296 50.4403 94.5499C49.774 94.0293 50.1925 93.447 50.945 93.2614C53.052 92.7466 55.3509 93.915 56.389 95.8576C56.8538 96.7345 56.9623 97.7939 57.8823 98.7048C57.8823 97.6641 57.8823 96.8148 57.8823 95.9693C57.8887 93.5246 59.4718 91.7522 61.8516 91.3714C62.9513 91.1943 63.6581 91.5448 64.0452 92.527C65.3093 95.7273 66.6016 98.9154 67.7449 102.16C67.996 102.869 68.1411 102.9 68.7516 102.733C71.2059 102.067 71.0819 102.094 70.9299 99.9939C70.6512 96.1549 69.2941 92.5546 68.6618 88.7964C68.6213 88.5545 68.4076 88.2912 68.4666 88.0961C68.7176 87.2659 69.2909 86.3948 70.1152 86.5001C71.5372 86.6831 71.2612 84.8085 72.4885 84.8707C73.6101 84.9266 74.3908 85.3446 75.0321 86.2896C78.5861 91.5325 82.1677 96.7531 85.7776 101.955C86.6513 103.213 87.6394 104.394 88.6434 105.553C88.9965 105.959 89.3438 106.411 89.3682 106.866C89.415 107.743 89.8766 107.771 90.552 107.811C92.8292 107.942 95.7945 110.169 96.2933 112.019C96.4268 112.509 96.3927 112.986 96.4018 113.605C97.1516 111.136 98.9889 111.793 100.641 111.975C100.842 111.997 101.13 112.118 101.167 111.917C101.545 109.816 103.423 109.271 104.907 109.168C106.847 109.038 108.483 110.426 109.567 112.034C110.577 113.528 111.881 114.355 113.542 114.9C115.091 115.412 116.566 116.149 118.078 116.778C118.416 116.92 118.72 117.333 119.104 116.744C120.08 115.257 121.059 114.913 122.828 115.43C125.747 116.285 128.663 117.15 131.553 118.082C132.133 118.269 132.433 118.206 132.889 117.835C134.552 116.472 136.238 116.264 138.373 117.144C148.031 121.119 157.638 125.221 167.535 128.604C171.46 129.946 175.278 131.604 179.151 133.122C179.058 130.643 183.154 129.432 185.022 130.399C186.748 131.291 188.53 132.084 190.237 133.014C190.863 133.354 191.309 133.472 192.056 133.249C197.289 131.681 202.553 130.209 207.876 128.688C207.036 127.688 206.098 126.743 205.36 125.655C203.173 122.429 202.054 118.907 202.829 114.978C203.095 113.627 203.771 112.462 205.078 111.842C205.813 111.495 206.147 110.9 206.166 110.185C206.234 107.455 208.09 105.999 210.119 104.784C211.938 103.694 213.927 102.916 216.04 102.535C216.796 102.398 217.081 102.169 216.533 101.385C214.987 99.1824 213.943 96.7409 213.732 94.0421C213.586 92.1983 214.039 90.4014 214.817 88.722C215.263 87.7584 215.198 87.176 214.219 86.4975C211.904 84.8925 211.352 81.772 212.858 79.2906C214.513 76.5636 216.855 74.4848 219.501 72.7713C220.551 72.0896 221.202 71.4886 221.15 70.0416C221.097 68.567 221.608 67.0737 221.912 65.3725L221.924 65.3911ZM290.402 90.6274C292.871 87.2532 294.569 83.4301 295.666 79.3464C295.896 78.494 295.998 77.4501 294.845 76.8119C293.061 75.8233 292.878 75.0336 293.51 72.9979C294.185 70.8196 295.112 68.7249 295.536 66.46C295.777 65.1683 295.899 64.0526 294.827 63.0735C294.415 62.6954 294.284 62.1439 294.154 61.577C293.903 60.4645 294.009 59.3276 293.819 58.2305C292.958 53.1648 290.758 48.7929 286.935 45.2762C285.996 44.4118 284.989 43.5845 284.332 42.4442C284.159 42.1406 283.737 41.8153 284.084 41.5117C284.757 40.923 284.28 40.4365 284.063 39.9253C283.096 37.6572 281.435 36.0584 279.27 34.9368C278.83 34.7075 278.206 34.6549 278.036 34.0942C277.788 33.2824 277.15 33.3071 276.496 33.1738C273.559 32.5727 270.603 32.7834 267.647 32.8794C266.011 32.9321 264.444 33.3195 262.888 33.7967C261.999 34.0725 261.469 34.4938 261.649 35.5411C261.763 36.2166 261.457 36.988 260.719 36.7742C259.756 36.4954 258.783 36.5541 257.834 36.4488C254.349 36.0615 250.895 36.4024 247.721 38.0012C244.787 39.4791 242.411 41.7781 239.799 43.7362C236.759 46.0136 235.449 49.6575 232.865 52.3097C232.329 52.8581 232.418 54.5776 232.865 55.4082C234.089 57.6944 233.268 59.795 232.728 61.9333C232.205 64.0121 230.81 65.7692 230.184 67.7677C229.587 69.6853 228.722 71.3584 227.033 72.1981C225.459 72.9793 224.58 74.2306 223.582 75.4792C223.198 75.9594 222.823 76.446 222.429 76.914C220.942 78.6769 219.452 80.4398 218.346 82.4787C217.394 84.2326 217.429 85.3632 218.625 86.1348C219.774 86.8756 219.743 87.7211 219.204 88.756C218.715 89.701 218.141 90.6152 217.757 91.6006C216.861 93.9022 216.759 96.2788 217.49 98.6431C218.073 100.527 218.668 102.414 220.985 102.984C221.491 103.108 221.906 103.728 221.847 104.431C221.779 105.233 221.243 105.469 220.561 105.67C219.35 106.027 218.154 106.436 216.976 106.894C214.494 107.861 212.143 109.035 210.597 111.353C210.224 111.91 209.878 112.477 210.451 113.11C211.012 113.726 211.164 114.665 210.547 114.987C209.837 115.356 208.704 116.038 207.994 114.897C207.56 114.2 207.297 114.333 206.86 114.779C206.287 115.368 205.847 115.991 205.577 116.818C205.004 118.575 205.363 120.279 205.745 121.949C205.992 123.037 205.896 124.446 206.919 125.094C207.749 125.621 208.443 126.191 208.818 127.018C209.385 128.273 210.256 128.118 211.269 127.815C213.89 127.021 216.496 126.16 219.148 125.481C227.033 123.467 234.575 120.397 242.278 117.835C245.924 116.623 249.571 115.303 253.175 113.924C255.031 113.215 256.927 113.354 258.798 113.066C260.05 112.874 261.187 112.168 262.489 112.127C263.096 112.109 263.223 111.833 263.149 111.223C262.81 108.344 262.154 105.516 261.953 102.615C261.847 101.115 261.46 100.065 259.728 99.1356C256.22 97.252 252.849 94.9312 250.498 91.5139C250.309 91.2379 250.225 90.9061 249.797 90.7667C248.508 90.3456 247.247 89.8313 246.024 89.3697C245.512 91.114 244.862 92.6849 243.229 93.6177C242.774 93.8777 242.114 94.2245 242.163 93.3231C242.271 91.3895 242.399 89.4037 244.273 88.0902C243.328 87.3063 242.395 86.5347 241.438 85.7413C240.567 87.5542 239.387 88.914 237.847 90.0142C236.183 91.2039 234.541 92.3871 232.598 93.1093C231.728 93.4316 231.182 93.0348 230.733 92.477C230.228 91.8484 231.005 91.591 231.29 91.2719C233.345 88.973 235.356 86.6272 237.55 84.4676C238.656 83.3801 239.012 82.5962 238.395 81.0008C236.617 76.4029 238.928 73.1989 243.817 73.134C244.161 73.1308 244.509 73.0878 244.893 73.0628C244.425 71.4301 243.96 69.8805 243.548 68.3159C243.396 67.7336 243.152 67.6342 242.64 67.9038C241.45 68.5297 240.214 68.6813 238.748 68.3096C241.15 66.2584 243.405 64.3376 245.655 62.4072C249.094 59.4515 252.292 56.257 255.139 52.7216C256.812 50.6457 258.151 48.3467 259.564 46.0972C260.813 44.1081 261.556 44.0988 263.083 45.8339C263.18 45.9423 263.368 45.961 263.486 46.057C265.215 47.4916 267.211 48.0989 269.445 48.0586C271.301 48.0276 273.389 47.5505 273.983 50.2523C274.067 50.6365 274.575 50.9556 274.938 51.2407C277.466 53.23 280.05 55.1322 283.031 56.4149C283.452 56.5979 283.883 56.9074 284.335 56.7218C286.033 56.0278 286.327 57.2392 286.653 58.3916C287.852 62.6396 288.992 66.903 290.244 71.1355C290.96 73.5584 291.954 75.91 292.019 78.4849C292.097 81.6917 291.298 84.7436 290.188 87.7121C289.801 88.747 289.448 89.676 290.405 90.6242L290.402 90.6274ZM287.31 95.1232C286.848 95.6406 286.795 96.4186 286.021 96.2325C285.745 96.1644 285.81 95.7927 285.857 95.554C286.929 89.8962 287.737 84.2012 288.36 78.4754C288.472 77.4532 288.348 76.6476 288.038 75.718C286.994 72.5884 285.881 69.4811 285.472 66.1686C285.169 63.6931 284.648 61.2452 284.314 58.7729C284.217 58.0667 283.911 57.7689 283.297 57.67C278.479 56.8919 274.417 54.7541 271.254 50.9959C270.854 50.5218 270.461 50.4475 269.82 50.4847C267.266 50.6334 264.707 50.5992 262.371 49.3134C261.903 49.0562 261.578 49.0749 261.231 49.5427C259.836 51.439 258.473 53.3629 256.983 55.1817C253.915 58.9276 250.622 62.4662 246.733 65.3847C244.973 66.7046 244.954 66.6583 245.878 68.5888C246.272 69.4125 246.647 70.2464 246.978 71.0983C247.886 73.4281 248.639 75.8047 248.576 78.3392C248.567 78.7732 248.589 79.4916 247.963 79.5975C247.325 79.7054 246.835 79.2039 246.755 78.6365C246.467 76.604 245.026 76.7034 243.591 76.8709C242.284 77.0225 241.057 77.5117 240.45 78.7577C239.92 79.8421 240.49 80.7871 241.144 81.7103C242.789 84.0374 244.868 85.9582 246.903 87.9131C247.982 88.948 249.178 89.8685 250.857 88.982C251.155 88.8241 251.784 88.7284 251.985 89.14C252.564 90.3301 253.618 91.0986 254.572 91.8452C258.213 94.6924 261.088 98.6644 266.138 99.8051C264.391 99.8296 264.58 100.685 265.029 101.692C265.107 101.865 265.029 102.104 265.066 102.306C265.575 105.221 265.33 108.161 265.361 111.092C265.37 111.92 265.41 112.35 266.479 112.608C270.263 113.512 274.024 114.51 277.906 114.854C281.039 115.13 284.196 115.244 286.938 113.243C288.156 112.353 289.172 111.43 288.936 109.608C288.32 104.849 287.855 100.072 287.31 95.1264V95.1232ZM210.73 67.8171C213.258 65.8559 215.269 63.4048 217.348 61.0224C217.716 60.598 217.93 60.3965 217.326 59.7923C216.725 59.1914 217.088 58.2305 217.98 57.8497C218.674 57.5551 219.43 57.3695 220.176 57.2328C221.828 56.9292 223.492 56.6755 225.153 56.4213C225.704 56.3378 226.231 56.483 226.411 57.0594C226.56 57.5397 226.122 57.7875 225.766 57.964C225.305 58.1938 225.215 58.5591 225.045 59.0175C224.62 60.1518 224.926 61.1681 225.069 62.2865C225.32 64.2568 225.174 66.2707 224.589 68.2138C224.49 68.5388 224.313 69.2764 224.97 68.9573C226.16 68.3808 227.715 68.2511 227.991 66.3701C228.282 64.3748 229.156 62.4598 229.37 60.4645C229.587 58.4783 230.854 56.6228 230.085 54.5063C229.28 52.2972 229.633 51.3925 232.347 49.7224C232.961 49.3444 233.336 49.0315 233.509 48.2818C235.133 41.2824 240.171 37.3506 246.46 35.2126C249.974 34.0198 253.769 32.8951 257.689 33.4807C258.166 33.5519 259.551 31.6092 259.393 31.1693C258.857 29.6758 258.733 28.1173 258.516 26.5557C258.228 24.4891 258.343 22.41 258.2 20.2132C253.407 23.1598 248.719 25.8988 244.183 28.8671C237.364 33.3288 230.68 38.0042 224.236 42.9865C221.246 45.2979 217.943 47.2871 216.418 51.2593C214.333 56.6941 212.041 62.0386 210.733 67.8107L210.73 67.8171ZM291.406 108.422C293.971 106.361 294.269 103.421 295.081 100.821C296.227 97.1589 294.929 93.6671 293.5 90.2865C293.28 89.7659 292.998 89.9924 292.664 90.2094C292.15 90.5407 291.623 90.897 291.047 91.0863C290.418 91.2906 290.408 91.6905 290.514 92.1675C291.186 95.2381 291.397 98.3549 291.403 101.487C291.406 103.737 291.403 105.983 291.403 108.425L291.406 108.422ZM59.8345 95.805C59.8345 97.7386 59.7228 99.6812 59.8808 101.599C59.9648 102.627 59.8345 103.675 60.16 104.71C60.4668 105.683 60.7455 106.033 61.7367 105.358C62.5642 104.793 63.5092 104.366 64.4542 104.016C65.2662 103.715 65.2849 103.427 64.7919 102.789C63.088 100.57 61.7213 98.1502 60.6992 95.5417C60.5907 95.2689 60.7949 94.6706 60.1631 94.9312C59.8159 95.0737 59.3575 95.2439 59.8345 95.8018V95.805ZM61.3033 108.595C61.9877 108.799 62.3536 108.759 62.7748 108.626C65.8672 107.653 68.5315 105.63 71.7446 104.939C71.8903 104.908 72.3923 104.911 72.2593 104.4C72.0636 103.653 70.682 102.838 69.988 103.204C67.0291 104.75 64.0947 106.342 61.3065 108.598L61.3033 108.595ZM52.9377 98.4788C52.9621 98.7761 52.9621 99.0798 53.018 99.3712C53.6008 102.43 55.0845 105.261 55.2861 108.422C55.3297 109.082 56.1412 108.964 56.5097 109.335C56.7421 109.568 57.1542 109.599 57.2319 109.187C57.3281 108.682 58.1615 108.478 57.6871 107.728C55.8439 104.809 54.6229 101.574 52.9377 98.4756V98.4788ZM86.93 106.637C85.0464 106.463 83.3888 106.544 81.9816 107.876C82.4836 108.14 82.8617 108.415 83.2835 108.549C84.3151 108.871 85.1453 110.529 85.9105 109.993C86.6385 109.481 86.5987 107.879 86.93 106.637ZM85.2351 111.402C83.9275 111.04 82.5831 110.777 81.328 110.28C80.2996 109.871 79.872 110.141 79.6922 111.139C81.0526 111.291 81.2568 111.378 82.2762 112.233C83.8934 113.593 84.2471 113.494 85.2319 111.402H85.2351ZM82.5395 114.448C81.1579 114.058 79.7353 113.872 79.3391 111.756V116.077C80.4883 115.656 81.5945 115.418 82.5395 114.445V114.448ZM112.061 120.199C111.643 119.312 111.29 118.476 110.856 117.677C110.586 117.178 110.255 117.63 109.954 117.729C109.502 117.878 109.663 118.12 109.806 118.423C110.103 119.058 110.332 119.725 110.633 120.36C110.782 120.676 111.014 121.035 111.445 120.676C111.652 120.503 112.101 120.583 112.061 120.202V120.199ZM88.3956 112.394C89.4491 112.183 89.9447 111.349 90.8711 111.508C91.4135 111.6 91.2928 111.086 91.3082 110.745C91.3268 110.373 91.3359 110.092 90.8248 109.98C88.9035 109.562 89.0337 111.154 88.3924 112.391L88.3956 112.394ZM114.887 130.907C114.658 130.29 115.169 129.234 113.914 129.205C112.904 129.181 113.44 129.996 113.331 130.439C113.118 131.297 113.521 131.809 114.366 131.898C115.255 131.991 114.682 131.257 114.887 130.91V130.907ZM113.827 124.979C113.446 123.876 113.601 122.916 112.789 122.547C112.535 122.432 111.612 122.91 111.884 123.464C112.182 124.066 111.891 125.252 113.155 125.165C113.518 125.14 113.917 125.175 113.827 124.977V124.979ZM219.455 62.5779L219.752 62.8842C220.688 61.7068 221.627 60.5294 222.578 59.3366C220.081 59.1755 220.27 61.3133 219.455 62.5779ZM109.143 114.454C108.768 114.715 108.284 114.938 108.43 115.278C108.644 115.777 108.671 116.53 109.39 116.617C109.561 116.639 110.292 116.66 110.109 116.118C109.908 115.526 109.48 115.009 109.143 114.451V114.454ZM96.0519 118.247C97.0554 117.831 97.3159 116.964 97.5175 116.065C97.5637 115.861 97.5047 115.656 97.2819 115.557C97.0309 115.446 96.8666 115.616 96.7889 115.79C96.4544 116.561 95.8625 117.264 96.0487 118.244L96.0519 118.247Z" fill="#9A8DEC"/>
</g>
<path d="M323.8 236.032C322.743 236.568 321.616 236.451 320.597 236.274C318.44 235.902 316.286 236.051 314.13 236.039C307.89 236.007 301.647 236.15 295.41 235.992C289.399 235.84 283.388 235.465 277.609 233.535C276.937 233.312 276.255 233.055 275.657 232.686C275.316 232.475 274.833 232.181 275.001 231.586C275.177 230.96 275.704 231.038 276.141 231.084C277.916 231.27 279.722 231.345 281.445 231.753C283.115 232.15 284.81 232.103 286.471 232.237C290.511 232.562 294.582 232.652 298.638 232.584C303.586 232.503 308.519 232.847 313.451 232.999C316.218 233.082 319.041 233.293 321.746 234.145C322.753 234.461 323.447 234.982 323.797 236.029L323.8 236.032Z" fill="#1B1B1B"/>
<path d="M330.942 204.689C329.52 191.815 327.349 179.081 325.889 166.26C324.439 153.522 321.638 141.017 319.55 128.369C320.616 128.787 320.82 129.705 321.093 130.507C323.159 136.567 324.479 142.801 325.493 149.119C326.394 154.761 327.042 160.428 327.658 166.108C328.582 174.619 329.384 183.139 330.121 191.666C330.496 196.014 330.942 200.354 330.942 204.689Z" fill="#1B1B1B"/>
<path d="M321.536 121.896C321.592 122.25 321.502 122.563 321.133 122.606C320.69 122.659 320.566 122.262 320.415 121.93C319.47 119.839 318.559 117.732 317.555 115.669C313.691 107.721 309.775 99.7988 305.93 91.8389C305.068 90.0573 304.195 88.2636 303.745 86.3114C303.689 86.0699 303.476 85.8344 303.494 85.6083C303.538 85.0197 303.138 84.18 303.792 83.9071C304.532 83.6003 304.87 84.4182 305.251 84.9388C311.206 93.0503 315.117 102.16 318.298 111.625C319.296 114.594 320.26 117.575 321.226 120.552C321.366 120.986 321.434 121.444 321.536 121.891V121.896Z" fill="#1B1B1B"/>
<path d="M313.613 129.454C309.201 115.759 304.528 102.15 299.115 88.8024C298.812 88.0558 298.496 87.3059 298.279 86.5316C298.164 86.1254 297.966 85.5058 298.459 85.2862C299.063 85.0166 299.348 85.5398 299.552 86.0573C300.02 87.2411 300.519 88.4121 300.996 89.5927C306.214 102.556 310.084 115.945 313.616 129.454H313.613Z" fill="#1B1B1B"/>
<path d="M327.847 224.165C325.914 226.012 323.612 227.245 321.242 228.351C317.83 229.941 314.391 231.453 310.642 232.106C310.171 232.19 309.626 232.664 309.393 231.914C309.179 231.227 309.836 231.072 310.304 230.914C313.79 229.727 317.291 228.584 320.77 227.378C323.221 226.529 325.458 225.203 327.844 224.165H327.847Z" fill="#1B1B1B"/>
<path d="M347.544 219.344C347.126 219.335 346.844 219.221 346.649 218.96C346.394 218.616 346.649 218.393 346.871 218.186C348.48 216.683 350.088 215.177 351.705 213.684C352.086 213.33 352.529 213.262 352.947 213.619C353.452 214.049 353.477 214.514 353.115 215.1C352.157 216.649 350.562 217.389 349.146 218.359C348.607 218.728 348.03 219.047 347.547 219.344H347.544Z" fill="#1B1B1B"/>
<path d="M123.966 129.776C125.227 128.651 128.991 129.233 131.07 130.811C129.918 131.083 125.571 130.479 123.966 129.776Z" fill="#1B1B1B"/>
<path d="M128.49 123.864C129.444 123.824 130.244 124.351 131.112 124.599C131.368 124.673 131.892 124.676 131.697 125.228C131.567 125.599 131.307 125.816 130.888 125.776C129.831 125.671 128.772 125.599 127.725 125.441C127.244 125.37 126.541 125.233 126.544 124.694C126.544 124.156 127.276 124.106 127.734 123.942C127.966 123.858 128.236 123.886 128.49 123.864Z" fill="#1B1B1B"/>
<path d="M124.843 133.97C124.986 133.921 125.119 133.844 125.258 133.834C126.058 133.785 126.78 133.974 127.204 134.711C127.313 134.897 127.053 135.006 126.839 135.064C126.008 135.3 125.385 134.974 124.84 133.97H124.843Z" fill="#1B1B1B"/>
<path d="M133.633 185.497C132.608 185.658 131.802 184.58 130.696 185.153C131.428 184.06 132.645 184.239 133.633 185.497Z" fill="#1B1B1B"/>
<path d="M253.95 104.108C254.04 105.109 253.811 106.082 253.278 106.978C253.129 107.229 252.952 107.57 252.587 107.455C252.218 107.34 252.227 106.888 252.326 106.68C253.33 104.583 252.035 103.127 251.006 101.552C250.443 100.691 249.513 99.3864 250.523 98.7387C251.583 98.0601 252.274 99.5475 252.915 100.35C253.777 101.425 254.219 102.655 253.947 104.106L253.95 104.108Z" fill="#1B1B1B"/>
<path d="M240.8 110.572C242.161 105.63 240.655 101.49 237.51 97.794C238.557 97.5339 239.434 97.9025 240.426 99.4734C242.69 103.065 242.694 106.792 240.8 110.572Z" fill="#1B1B1B"/>
<path d="M245.198 104.459C244.863 103.263 245.728 102.55 246.986 102.079C247.993 101.701 248.569 102.255 248.609 103.102C248.668 104.4 248.16 105.627 247.234 106.541C246.255 107.504 245.551 107.216 245.282 105.859C245.213 105.509 245.235 105.14 245.201 104.462L245.198 104.459Z" fill="#1B1B1B"/>
<path d="M247.725 67.5814C247.846 65.9392 249.358 65.1027 250.851 64.331C252.174 63.6498 253.655 63.8046 255.087 63.879C255.598 63.9067 256.128 64.1885 256.342 64.6687C256.608 65.267 256.078 65.6355 255.685 65.9328C253.946 67.2559 252.212 68.5944 250.405 69.8218C249.386 70.5126 247.743 69.3038 247.722 67.5814H247.725Z" fill="#1B1B1B"/>
<path d="M277.309 57.6356C278.622 57.6851 279.611 57.4989 280.497 58.0568C280.955 58.345 281.554 58.4875 281.43 59.2592C281.321 59.9314 281.086 60.2877 280.33 60.4764C277.966 61.0683 275.605 61.5858 273.16 61.6884C272.478 61.7161 271.663 61.8836 271.515 61.0343C271.375 60.2504 271.62 59.3889 272.416 58.9337C274.037 58.0009 275.781 57.5207 277.312 57.6356H277.309Z" fill="#1B1B1B"/>
<path d="M271.778 75.8697C272.265 74.4663 272.844 73.1219 272.035 71.6775C270.846 71.87 270.077 72.9235 268.9 73.1868C268.416 73.2953 267.986 73.4224 267.676 73.0256C267.332 72.5858 267.651 72.1397 267.899 71.7584C268.649 70.606 271.806 69.4036 273.105 69.7503C274.276 70.0635 274.923 71.4239 274.362 72.53C273.727 73.7818 272.98 74.9683 271.785 75.8729L271.778 75.8697Z" fill="#1B1B1B"/>
<path d="M257.943 74.0789C257.943 74.3671 257.953 74.7235 257.943 75.0798C257.925 75.6716 257.522 76.0152 257.039 76.1891C256.506 76.3811 256.044 76.1423 255.706 75.6903C254.83 74.5129 254.678 73.1711 254.916 71.7863C254.988 71.3801 255.307 70.7977 255.805 70.9094C256.45 71.0551 257.166 71.2067 257.606 71.8294C258.079 72.5021 258.148 73.2302 257.943 74.0757V74.0789Z" fill="#1B1B1B"/>
<path d="M279.654 68.7246C279.62 69.7717 279.428 70.7198 278.083 70.689C276.795 70.6608 275.518 69.0436 275.636 67.5163C275.673 67.0233 275.729 66.3575 276.559 66.3948C278.644 66.4873 279.695 67.2653 279.654 68.7214V68.7246Z" fill="#1B1B1B"/>
<path d="M247.645 82.2338C247.599 82.2987 247.543 82.4539 247.434 82.5188C247.137 82.6954 246.992 82.4071 246.812 82.2582C245.898 81.493 244.782 81.2079 243.682 80.8458C243.298 80.7187 242.498 81.0037 242.598 80.2443C242.7 79.4945 243.053 78.7792 244.017 78.7112C245.387 78.6117 247.701 80.8022 247.642 82.2338H247.645Z" fill="#1B1B1B"/>
<path d="M66.4098 63.9142L66.8144 64.2307L66.4098 63.9142C66.3969 63.9306 66.3841 63.9472 66.3715 63.9638L66.7804 64.2748L66.3715 63.9638C65.9858 64.4709 65.761 65.0424 65.5926 65.7532C65.428 66.4478 65.3097 67.3126 65.1587 68.4159L65.1551 68.4422C64.9664 69.8212 64.8289 70.823 64.6855 71.484C64.6744 71.5351 64.6635 71.5833 64.6527 71.6286C64.6419 71.5833 64.631 71.5351 64.6199 71.484C64.4766 70.823 64.3391 69.8212 64.1503 68.4422L64.1467 68.4159C63.9957 67.3126 63.8774 66.4478 63.7129 65.7532C63.5445 65.0424 63.3196 64.4709 62.9339 63.9638L62.525 64.2748L62.9339 63.9638C62.9213 63.9472 62.9085 63.9306 62.8957 63.9142L62.491 64.2307L62.8957 63.9142C62.5032 63.4124 62.0075 63.0497 61.3628 62.7063C60.7328 62.3708 59.9265 62.0367 58.8976 61.6104L58.8731 61.6002L58.5778 61.4779C58.0744 61.2693 57.7503 61.1336 57.5455 61.0127C57.54 61.0095 57.5348 61.0063 57.5297 61.0033C57.5348 61.0002 57.54 60.9971 57.5455 60.9938C57.7503 60.8729 58.0744 60.7373 58.5779 60.5287L58.8731 60.4063L58.8977 60.3961C59.9265 59.9699 60.7328 59.6358 61.3628 59.3002C62.0075 58.9568 62.5032 58.5942 62.8957 58.0923C62.9085 58.0759 62.9213 58.0593 62.9339 58.0427C63.3196 57.5356 63.5445 56.9642 63.7129 56.2533C63.8774 55.5587 63.9957 54.694 64.1467 53.5906L64.1503 53.5643C64.3391 52.1854 64.4766 51.1835 64.6199 50.5226C64.631 50.4714 64.6419 50.4232 64.6527 50.3779C64.6635 50.4232 64.6744 50.4714 64.6855 50.5226C64.8289 51.1835 64.9664 52.1854 65.1551 53.5643L65.1587 53.5906C65.3097 54.694 65.428 55.5587 65.5926 56.2533C65.761 56.9642 65.9858 57.5356 66.3715 58.0427C66.3841 58.0593 66.3969 58.0759 66.4098 58.0924C66.8023 58.5942 67.2979 58.9568 67.9427 59.3002C68.5727 59.6358 69.379 59.9699 70.4078 60.3962L70.4324 60.4063L70.7276 60.5287C71.231 60.7373 71.5551 60.8729 71.7599 60.9938C71.7654 60.9971 71.7706 61.0002 71.7757 61.0033C71.7706 61.0063 71.7654 61.0095 71.7599 61.0127C71.5551 61.1336 71.231 61.2693 70.7276 61.4779L70.4324 61.6002L70.4078 61.6104C69.379 62.0367 68.5727 62.3708 67.9427 62.7063C67.2979 63.0497 66.8023 63.4124 66.4098 63.9142ZM64.4574 72.1951C64.4574 72.1947 64.4595 72.1916 64.4638 72.1867C64.4597 72.193 64.4575 72.1954 64.4574 72.1951ZM64.8416 72.1867C64.846 72.1916 64.8481 72.1947 64.848 72.1951C64.848 72.1954 64.8458 72.193 64.8416 72.1867ZM57.4056 60.9117C57.4058 60.9117 57.4073 60.9132 57.4095 60.9164C57.4065 60.9132 57.4054 60.9117 57.4056 60.9117ZM57.4095 61.0902C57.4073 61.0933 57.4058 61.0949 57.4056 61.0949C57.4054 61.0949 57.4065 61.0933 57.4095 61.0902ZM64.848 49.8115C64.8481 49.8118 64.846 49.8149 64.8416 49.8198C64.8458 49.8135 64.848 49.8111 64.848 49.8115ZM64.4638 49.8198C64.4594 49.8149 64.4574 49.8118 64.4574 49.8115C64.4575 49.8111 64.4596 49.8135 64.4638 49.8198ZM71.8998 61.0949C71.8996 61.0949 71.8981 61.0933 71.8959 61.0902C71.8989 61.0933 71.9 61.0949 71.8998 61.0949ZM71.8959 60.9164C71.8981 60.9132 71.8996 60.9117 71.8998 60.9117C71.9 60.9117 71.8989 60.9132 71.8959 60.9164Z" stroke="#9A8DEC" stroke-width="1.02749"/>
<path d="M46.3977 85.435L46.5953 84.9608L46.3977 85.435L46.5259 85.4884C46.6652 85.5465 46.7541 85.5837 46.8173 85.6132C46.8255 85.6171 46.8327 85.6205 46.839 85.6236C46.8327 85.6267 46.8255 85.6301 46.8173 85.634C46.7541 85.6635 46.6652 85.7007 46.5259 85.7588L46.3977 85.8122L46.3636 85.8264C45.9195 86.0114 45.6553 86.1215 45.4178 86.2551C44.321 86.8722 43.5231 87.9097 43.2083 89.1282C43.1401 89.392 43.1015 89.6756 43.0367 90.1523L43.0317 90.1889C42.9892 90.501 42.9584 90.7269 42.9337 90.8847C42.9273 90.9255 42.9217 90.9597 42.9166 90.9881C42.9116 90.9597 42.9059 90.9255 42.8995 90.8847C42.8748 90.7269 42.844 90.501 42.8016 90.1889L42.7966 90.1523C42.7317 89.6756 42.6932 89.392 42.625 89.1282C42.3101 87.9097 41.5122 86.8722 40.4154 86.2551C40.1779 86.1215 39.9137 86.0114 39.4696 85.8264L39.4356 85.8122L39.3073 85.7588C39.1681 85.7007 39.0791 85.6635 39.016 85.634C39.0077 85.6301 39.0005 85.6267 38.9943 85.6236C39.0005 85.6205 39.0077 85.6171 39.016 85.6132C39.0791 85.5837 39.1681 85.5465 39.3073 85.4884L39.4356 85.435L39.4696 85.4208C39.9137 85.2358 40.1779 85.1257 40.4154 84.9921C41.5122 84.375 42.3101 83.3375 42.625 82.119C42.6932 81.8552 42.7317 81.5716 42.7966 81.0949L42.8016 81.0583C42.844 80.7462 42.8748 80.5203 42.8995 80.3625C42.9059 80.3217 42.9116 80.2875 42.9166 80.2591C42.9217 80.2875 42.9273 80.3217 42.9337 80.3625C42.9584 80.5203 42.9892 80.7462 43.0317 81.0583L43.0367 81.0949C43.1015 81.5716 43.1401 81.8552 43.2083 82.119C43.5231 83.3375 44.321 84.375 45.4178 84.9921C45.6553 85.1257 45.9195 85.2358 46.3636 85.4208L46.3977 85.435ZM42.8973 91.082C42.8973 91.082 42.8975 91.0814 42.8978 91.0801L42.8973 91.082ZM42.9354 91.0802C42.9358 91.0814 42.936 91.082 42.9359 91.082L42.9354 91.0802ZM42.9359 80.1652C42.9359 80.1652 42.9358 80.1658 42.9355 80.1669L42.9359 80.1652ZM42.8978 80.167C42.8975 80.1659 42.8973 80.1652 42.8973 80.1652L42.8978 80.167Z" stroke="#9A8DEC" stroke-width="1.02749"/>
<circle cx="33.0375" cy="96.8206" r="1.97593" fill="#9A8DEC"/>
<circle cx="40.9407" cy="67.8405" r="3.29322" fill="#9A8DEC"/>
<circle cx="84.411" cy="75.744" r="1.97593" fill="#9A8DEC"/>
<path d="M277.467 82.0633L268.566 86.302C267.363 86.8749 267.487 88.6259 268.759 89.0233L272.796 90.285C275.082 90.9994 277.52 89.7519 278.277 87.4796L279.487 83.8494C279.896 82.6239 278.634 81.5079 277.467 82.0633Z" stroke="black" stroke-width="1.46515"/>
</g>
<defs>
<clipPath id="clip0_194_1685">
<rect width="380.939" height="397.055" fill="white"/>
</clipPath>
</defs>
</svg>
